o ĞøÛ
v -78.060760 -52.245041 -21.568325
v -78.060760 -36.245041 -29.568323
v -78.060760 -36.245041 -21.568321
v -78.060760 -52.245041 -29.568325
v -86.060760 -40.245041 -21.568323
v -87.199760 -40.407043 -21.568323
v -87.199760 -40.407043 -19.968323
v -86.060760 -40.245041 -19.968323
v -94.060760 -36.245041 -21.568321
v -94.060760 -36.245041 -29.568323
v -94.060760 -52.245041 -29.568325
v -94.060760 -52.245041 -21.568325
v -88.245758 -40.880043 -21.568323
v -88.245758 -40.880043 -19.968323
v -89.114761 -41.626041 -21.568323
v -89.114761 -41.626041 -19.968323
v -90.060760 -43.676041 -19.968323
v -90.060760 -43.676041 -21.568325
v -90.060760 -44.814041 -19.968323
v -90.060760 -44.814041 -21.568325
v -89.736755 -42.583042 -21.568323
v -89.736755 -42.583042 -19.968323
v -82.060760 -43.676041 -21.568325
v -82.060760 -43.676041 -19.968323
v -82.060760 -44.814041 -21.568325
v -86.060760 -48.245041 -19.968323
v -86.060760 -48.245041 -21.568325
v -84.921761 -48.083042 -21.568325
v -84.921761 -48.083042 -19.968323
v -83.875763 -47.610043 -21.568325
v -83.875763 -47.610043 -19.968323
v -88.246765 -40.878040 -29.568323
v -87.199760 -40.405041 -29.568323
v -82.060760 -44.814041 -19.968323
v -83.006760 -46.864044 -21.568325
v -83.006760 -46.864044 -19.968323
v -87.199760 -48.085041 -29.568325
v -87.199760 -48.085041 -27.965324
v -86.060760 -48.247040 -27.965324
v -86.060760 -48.247040 -29.568325
v -86.060760 -40.242043 -29.568323
v -86.060760 -40.242043 -27.965322
v -87.199760 -40.405041 -27.965322
v -82.384766 -45.907043 -21.568325
v -82.384766 -45.907043 -19.968323
v -89.736755 -45.907043 -21.568325
v -88.246765 -47.612041 -29.568325
v -88.246765 -47.612041 -27.965324
v -87.199760 -48.083042 -21.568325
v -89.114761 -46.864044 -21.568325
v -88.245758 -47.610043 -21.568325
v -84.921761 -40.405041 -29.568323
v -84.921761 -40.405041 -27.965322
v -89.116760 -46.866039 -29.568325
v -89.116760 -46.866043 -27.965324
v -89.736755 -45.907043 -19.968323
v -89.738762 -45.908043 -29.568323
v -89.738762 -45.908043 -27.965324
v -82.384766 -42.583042 -19.968323
v -83.006760 -41.626041 -19.968323
v -83.875763 -40.880043 -19.968323
v -84.921761 -40.407043 -19.968323
v -89.114761 -46.864044 -19.968323
v -88.245758 -47.610043 -19.968323
v -83.874756 -40.878040 -29.568323
v -83.874756 -40.878040 -27.965322
v -87.199760 -48.083042 -19.968323
v -83.004761 -41.624039 -29.568323
v -83.004761 -41.624039 -27.965322
v -82.382759 -42.582039 -29.568323
v -90.062759 -44.815041 -27.965324
v -90.062759 -44.815041 -29.568323
v -84.921761 -40.407043 -21.568323
v -82.382759 -42.582039 -27.965324
v -82.382759 -45.908043 -29.568323
v -82.382759 -45.908043 -27.965324
v -82.057762 -44.815041 -27.965324
v -82.057762 -44.815041 -29.568323
v -82.057762 -43.675041 -29.568323
v -82.057762 -43.675041 -27.965324
v -83.875763 -40.880043 -21.568323
v -83.006760 -41.626041 -21.568323
v -83.004761 -46.866039 -29.568325
v -83.004761 -46.866043 -27.965324
v -82.384766 -42.583042 -21.568323
v -83.874756 -47.612041 -29.568325
v -83.874756 -47.612041 -27.965324
v -84.921761 -48.085041 -29.568325
v -84.921761 -48.085041 -27.965324
v -89.116760 -41.624039 -29.568323
v -89.738762 -42.582039 -29.568323
v -89.116760 -41.624039 -27.965322
v -89.738762 -42.582039 -27.965324
v -88.246765 -40.878040 -27.965322
v -90.062759 -43.675041 -27.965324
v -90.062759 -43.675041 -29.568323
vt 0.000000 0.000000
vt 1.000000 0.000000
vt 1.000000 1.000000
vt 0.000000 0.000000
vt 1.000000 0.000000
vt 1.000000 1.000000
vt 0.000000 0.000000
vt 1.000000 0.000000
vt 1.000000 1.000000
vt 1.000000 0.000000
vt 1.000000 1.000000
vt 0.000000 0.000000
vt 1.000000 0.000000
vt 1.000000 1.000000
vt 1.000000 0.000000
vt 1.000000 1.000000
vt 0.000000 0.000000
vt 1.000000 0.000000
vt 1.000000 1.000000
vt 1.000000 0.000000
vt 0.000000 0.000000
vt 1.000000 0.000000
vt 1.000000 1.000000
vt 1.000000 0.000000
vt 0.000000 0.000000
vt 1.000000 0.000000
vt 1.000000 1.000000
vt 0.000000 0.000000
vt 1.000000 0.000000
vt 1.000000 1.000000
vt 0.000000 0.000000
vt 1.000000 0.000000
vt 1.000000 1.000000
vt 1.000000 0.000000
vt 0.000000 0.000000
vt 1.000000 0.000000
vt 1.000000 1.000000
vt 1.000000 0.000000
vt 1.000000 0.000000
vt 1.000000 1.000000
vt 0.000000 0.000000
vt 1.000000 1.000000
vt 1.000000 0.000000
vt 0.000000 0.000000
vt 1.000000 0.000000
vt 1.000000 1.000000
vt 1.000000 0.000000
vt 1.000000 1.000000
vt 0.000000 0.000000
vt 1.000000 0.000000
vt 1.000000 1.000000
vt 1.000000 0.000000
vt 0.000000 0.000000
vt 1.000000 1.000000
vt 0.000000 0.000000
vt 1.000000 1.000000
vt 0.000000 0.000000
vt 1.000000 0.000000
vt 1.000000 1.000000
vt 1.000000 0.000000
vt 0.000000 0.000000
vt 1.000000 0.000000
vt 1.000000 1.000000
vt 1.000000 0.000000
vt 1.000000 1.000000
vt 0.000000 0.000000
vt 1.000000 0.000000
vt 1.000000 1.000000
vt 1.000000 0.000000
vt 0.000000 0.000000
vt 1.000000 1.000000
vt 1.000000 0.000000
vt 1.000000 1.000000
vt 1.000000 0.000000
vt 0.000000 0.000000
vt 1.000000 0.000000
vt 0.000000 0.000000
vt 1.000000 0.000000
vt 1.000000 1.000000
vt 1.000000 1.000000
vt 1.000000 1.000000
vt 0.000000 0.000000
vt 1.000000 1.000000
vt 1.000000 1.000000
vt 0.000000 0.000000
vt 1.000000 1.000000
vt 0.000000 0.000000
vt 1.000000 0.000000
vt 1.000000 0.000000
vt 0.000000 0.000000
vt 1.000000 0.000000
vt 1.000000 1.000000
vt 1.000000 1.000000
vt 0.000000 0.000000
vt 1.000000 0.000000
vt 1.000000 1.000000
vt 1.000000 1.000000
vt 1.000000 0.000000
vt 0.000000 0.000000
vt 1.000000 1.000000
vt 1.000000 0.000000
vt 1.000000 1.000000
vt 0.000000 0.000000
vt 1.000000 0.000000
vt 1.000000 1.000000
vt 1.000000 1.000000
vt 0.000000 0.000000
vt 0.000000 0.000000
vt 1.000000 1.000000
vt 0.000000 0.000000
vt 0.000000 0.000000
vt 0.000000 0.000000
vt 1.000000 0.000000
vt 0.000000 0.000000
vt 1.000000 1.000000
vt 0.000000 0.000000
vt 1.000000 1.000000
vt 1.000000 1.000000
vt 1.000000 0.000000
vt 1.000000 1.000000
vt 1.000000 0.000000
vt 1.000000 0.000000
vt 1.000000 1.000000
vt 0.000000 0.000000
vt 1.000000 0.000000
vt 0.000000 0.000000
vt 1.000000 0.000000
vt 1.000000 1.000000
vt 1.000000 1.000000
vt 1.000000 0.000000
vt 1.000000 1.000000
vt 0.000000 0.000000
vt 1.000000 0.000000
vt 1.000000 1.000000
vt 1.000000 1.000000
vt 1.000000 1.000000
vt 0.000000 0.000000
vt 1.000000 1.000000
vt 1.000000 0.000000
vt 1.000000 1.000000
vt 1.000000 0.000000
vt 0.000000 0.000000
vt 1.000000 0.000000
vt 1.000000 1.000000
vt 1.000000 1.000000
vt 0.000000 0.000000
vt 1.000000 0.000000
vt 1.000000 1.000000
vt 1.000000 1.000000
vt 0.000000 0.000000
vt 1.000000 0.000000
vt 1.000000 1.000000
vt 1.000000 0.000000
vt 1.000000 1.000000
vt 0.000000 0.000000
vt 1.000000 0.000000
vt 1.000000 1.000000
vt 0.000000 0.000000
vt 1.000000 0.000000
vt 1.000000 1.000000
vt 1.000000 0.000000
vt 0.000000 0.000000
vt 1.000000 0.000000
vt 1.000000 1.000000
vt 0.000000 0.000000
vt 1.000000 0.000000
vt 1.000000 1.000000
vt 1.000000 1.000000
vt 1.000000 0.000000
vt 1.000000 1.000000
vt 1.000000 0.000000
vt 1.000000 1.000000
vt 1.000000 0.000000
vt 0.000000 0.000000
vt 1.000000 0.000000
vt 1.000000 1.000000
vt 1.000000 0.000000
vt 1.000000 1.000000
vt 1.000000 0.000000
vt 0.000000 0.000000
vt 1.000000 0.000000
vt 0.000000 0.000000
vt 1.000000 0.000000
vt 1.000000 0.000000
vt 1.000000 1.000000
vt 1.000000 1.000000
vt 1.000000 0.000000
vt 1.000000 0.000000
vt 0.000000 0.000000
vt 1.000000 0.000000
vt 1.000000 1.000000
vt 1.000000 0.000000
vt 1.000000 0.000000
vt 1.000000 1.000000
vt 1.000000 1.000000
vt 0.000000 0.000000
vt 1.000000 0.000000
vt 1.000000 1.000000
vt 1.000000 1.000000
vt 1.000000 1.000000
vt 1.000000 1.000000
vt 0.000000 0.000000
vt 1.000000 0.000000
vt 0.000000 0.000000
vt 1.000000 1.000000
vt 0.000000 0.000000
vt 1.000000 0.000000
vt 1.000000 1.000000
vt 1.000000 0.000000
vt 1.000000 0.000000
vt 0.000000 0.000000
vt 0.000000 0.000000
vt 1.000000 0.000000
vt 1.000000 0.000000
vt 1.000000 1.000000
vt 0.000000 0.000000
vt 1.000000 0.000000
vt 0.000000 0.000000
vt 1.000000 0.000000
vt 1.000000 1.000000
vt 0.000000 0.000000
vt 1.000000 1.000000
vt 0.000000 0.000000
vt 1.000000 1.000000
vt 0.000000 0.000000
vt 0.000000 0.000000
vt 0.000000 0.000000
vt 0.000000 0.000000
vt 0.000000 0.000000
vt 0.000000 0.000000
vt 0.000000 0.000000
vt 1.000000 0.000000
vt 1.000000 1.000000
vt 0.000000 0.000000
vt 1.000000 0.000000
vt 0.000000 0.000000
vt 1.000000 1.000000
vt 1.000000 1.000000
vt 1.000000 0.000000
vt 0.000000 0.000000
vt 0.000000 0.000000
vt 1.000000 0.000000
vt 1.000000 0.000000
vt 1.000000 1.000000
vt 1.000000 1.000000
vt 1.000000 0.000000
vt 0.000000 0.000000
vt 1.000000 1.000000
vt 1.000000 1.000000
vt 0.000000 0.000000
vn 0.577300 -0.577300 0.577300
vn 0.577300 0.577300 -0.577300
vn 0.577300 0.577300 0.577300
vn 0.577300 -0.577300 -0.577300
vn 0.000000 0.672400 0.740200
vn -0.187700 0.645500 0.740300
vn -0.205600 0.707000 0.676700
vn 0.000000 0.736200 0.676700
vn -0.577300 0.577300 0.577300
vn -0.577300 0.577300 -0.577300
vn -0.577300 -0.577300 -0.577300
vn -0.577300 -0.577300 0.577300
vn -0.361000 0.566900 0.740500
vn -0.395600 0.621100 0.676500
vn -0.505700 0.442500 0.740500
vn -0.554200 0.485000 0.676500
vn -0.729100 0.105800 0.676200
vn -0.664600 0.096400 0.740900
vn -0.729100 -0.105800 0.676200
vn -0.664600 -0.096400 0.740900
vn -0.609800 0.281400 0.740900
vn -0.669000 0.308600 0.676200
vn 0.664600 0.096400 0.740900
vn 0.729100 0.105800 0.676200
vn 0.664600 -0.096400 0.740900
vn 0.000000 -0.736200 0.676700
vn 0.000000 -0.672400 0.740200
vn 0.187700 -0.645500 0.740300
vn 0.205600 -0.707000 0.676700
vn 0.361000 -0.566900 0.740500
vn 0.395600 -0.621100 0.676500
vn 0.360700 -0.567100 -0.740400
vn 0.187900 -0.645600 -0.740200
vn 0.729100 -0.105800 0.676200
vn 0.505700 -0.442500 0.740500
vn 0.554200 -0.485000 0.676500
vn 0.187600 0.645600 -0.740300
vn 0.205500 0.707000 -0.676700
vn 0.000000 0.736200 -0.676700
vn 0.000000 0.672400 -0.740200
vn 0.000000 -0.672100 -0.740400
vn 0.000000 -0.736400 -0.676600
vn 0.205700 -0.706800 -0.676800
vn 0.609800 -0.281400 0.740900
vn 0.669000 -0.308600 0.676200
vn -0.609800 -0.281400 0.740900
vn 0.360700 0.567100 -0.740400
vn 0.395200 0.621300 -0.676500
vn -0.187700 -0.645500 0.740300
vn -0.505700 -0.442500 0.740500
vn -0.361000 -0.566900 0.740500
vn -0.187900 -0.645600 -0.740200
vn -0.205700 -0.706800 -0.676800
vn 0.505600 0.442500 -0.740600
vn 0.554200 0.485100 -0.676400
vn -0.669000 -0.308600 0.676200
vn 0.609900 0.281200 -0.740800
vn 0.669000 0.308500 -0.676200
vn 0.669000 0.308600 0.676200
vn 0.554200 0.485000 0.676500
vn 0.395600 0.621100 0.676500
vn 0.205600 0.707000 0.676700
vn -0.554200 -0.485000 0.676500
vn -0.395600 -0.621100 0.676500
vn -0.360700 -0.567100 -0.740400
vn -0.395200 -0.621300 -0.676500
vn -0.205600 -0.707000 0.676700
vn -0.505600 -0.442500 -0.740600
vn -0.554200 -0.485100 -0.676400
vn -0.609900 -0.281500 -0.740700
vn 0.729100 0.105800 -0.676200
vn 0.664600 0.096400 -0.740900
vn 0.187700 0.645500 0.740300
vn -0.668800 -0.308700 -0.676300
vn -0.609900 0.281500 -0.740700
vn -0.668800 0.308700 -0.676300
vn -0.729100 0.106100 -0.676100
vn -0.664500 0.096700 -0.741000
vn -0.664500 -0.096700 -0.741000
vn -0.729100 -0.106100 -0.676100
vn 0.361000 0.566900 0.740500
vn 0.505700 0.442500 0.740500
vn -0.505600 0.442500 -0.740600
vn -0.554200 0.485100 -0.676400
vn 0.609800 0.281400 0.740900
vn -0.360700 0.567100 -0.740400
vn -0.395200 0.621300 -0.676500
vn -0.187600 0.645600 -0.740300
vn -0.205400 0.707000 -0.676700
vn 0.505600 -0.442500 -0.740600
vn 0.609900 -0.281200 -0.740800
vn 0.554200 -0.485100 -0.676400
vn 0.669000 -0.308500 -0.676200
vn 0.395200 -0.621300 -0.676500
vn 0.729100 -0.105800 -0.676200
vn 0.664600 -0.096400 -0.740900
f 1/1/1 2/2/2 3/3/3
f 2/4/2 1/5/1 4/6/4
f 5/7/5 6/8/6 7/9/7
f 5/7/5 7/10/7 8/11/8
f 9/12/9 10/13/10 11/14/11
f 9/12/9 11/15/11 12/16/12
f 6/17/6 13/18/13 14/19/14
f 6/17/6 14/20/14 7/9/7
f 13/21/13 15/22/15 16/23/16
f 13/21/13 16/24/16 14/19/14
f 17/25/17 18/26/18 19/27/19
f 20/28/20 19/29/19 18/30/18
f 15/31/15 21/32/21 22/33/22
f 15/31/15 22/34/22 16/23/16
f 23/35/23 24/36/24 25/37/25
f 9/12/9 12/38/12 18/30/18
f 13/21/13 9/39/9 15/40/15
f 21/41/21 18/26/18 17/42/17
f 21/41/21 17/43/17 22/33/22
f 26/44/26 27/45/27 28/46/28
f 26/44/26 28/47/28 29/48/29
f 28/49/28 30/50/30 31/51/31
f 28/49/28 31/52/31 29/48/29
f 32/53/32 10/13/10 33/54/33
f 25/55/25 24/36/24 34/56/34
f 30/57/30 35/58/35 36/59/36
f 30/57/30 36/60/36 31/51/31
f 37/61/37 38/62/38 39/63/39
f 37/61/37 39/64/39 40/65/40
f 41/66/41 42/67/42 43/68/43
f 41/66/41 43/69/43 33/54/33
f 35/70/35 1/5/1 44/71/44
f 35/70/35 44/72/44 45/73/45
f 35/70/35 45/74/45 36/59/36
f 20/28/20 18/26/18 12/16/12
f 46/75/46 20/76/20 12/16/12
f 47/77/47 48/78/48 38/79/38
f 47/77/47 38/62/38 37/80/37
f 30/57/30 28/47/28 1/81/1
f 49/82/49 12/38/12 27/83/27
f 46/75/46 12/38/12 50/84/50
f 1/1/1 27/45/27 12/16/12
f 50/85/50 12/38/12 51/86/51
f 44/87/44 25/88/25 34/56/34
f 44/87/44 34/89/34 45/73/45
f 52/90/52 53/91/53 42/92/42
f 52/90/52 42/67/42 41/93/41
f 54/94/54 55/95/55 48/96/48
f 54/94/54 48/78/48 47/97/47
f 49/82/49 51/98/51 12/16/12
f 19/99/19 20/76/20 46/100/46
f 19/99/19 46/101/46 56/102/56
f 37/61/37 11/15/11 47/97/47
f 57/103/57 58/104/58 55/105/55
f 57/103/57 55/95/55 54/106/54
f 22/107/22 24/36/24 16/23/16
f 14/108/14 16/24/16 24/109/24
f 7/110/7 14/20/14 24/109/24
f 17/25/17 24/36/24 22/33/22
f 8/111/8 7/10/7 24/109/24
f 59/112/59 60/113/60 24/109/24
f 61/114/61 24/36/24 60/115/60
f 62/116/62 24/36/24 61/117/61
f 8/111/8 24/36/24 62/118/62
f 46/75/46 50/119/50 63/120/63
f 46/75/46 63/121/63 56/102/56
f 1/1/1 23/122/23 25/37/25
f 1/1/1 25/88/25 44/71/44
f 1/1/1 35/58/35 30/123/30
f 51/124/51 64/125/64 63/120/63
f 51/124/51 63/121/63 50/84/50
f 65/126/65 66/127/66 53/128/53
f 65/126/65 53/91/53 52/129/52
f 49/82/49 67/130/67 64/131/64
f 49/82/49 64/125/64 51/86/51
f 68/132/68 69/133/69 66/134/66
f 68/132/68 66/127/66 65/135/65
f 68/132/68 2/2/2 70/136/70
f 71/137/71 58/104/58 57/138/57
f 71/137/71 57/139/57 72/140/72
f 5/7/5 73/141/73 3/3/3
f 54/94/54 11/15/11 57/138/57
f 27/142/27 26/143/26 67/144/67
f 27/142/27 67/130/67 49/145/49
f 70/146/70 74/147/74 69/148/69
f 70/146/70 69/133/69 68/149/68
f 75/150/75 76/151/76 77/152/77
f 75/150/75 77/153/77 78/154/78
f 79/155/79 80/156/80 74/157/74
f 79/155/79 74/147/74 70/136/70
f 24/158/24 17/43/17 19/27/19
f 24/158/24 19/29/19 56/102/56
f 24/158/24 56/159/56 63/120/63
f 24/158/24 63/121/63 64/131/64
f 24/158/24 64/125/64 67/144/67
f 24/158/24 67/130/67 26/160/26
f 24/158/24 26/143/26 29/48/29
f 24/158/24 29/161/29 31/51/31
f 24/158/24 31/52/31 36/59/36
f 24/158/24 36/60/36 45/73/45
f 24/158/24 45/74/45 34/56/34
f 3/162/3 81/163/81 82/164/82
f 83/165/83 84/166/84 76/167/76
f 83/165/83 76/151/76 75/168/75
f 75/150/75 4/169/4 83/170/83
f 52/90/52 2/2/2 65/135/65
f 68/132/68 65/171/65 2/172/2
f 2/4/2 52/173/52 41/93/41
f 33/174/33 10/13/10 41/93/41
f 2/4/2 41/175/41 10/176/10
f 23/35/23 85/177/85 59/178/59
f 23/35/23 59/179/59 24/109/24
f 86/180/86 83/181/83 4/6/4
f 85/182/85 3/183/3 82/164/82
f 86/180/86 87/184/87 84/185/84
f 86/180/86 84/166/84 83/170/83
f 86/180/86 4/169/4 88/186/88
f 85/182/85 82/187/82 60/115/60
f 85/182/85 60/113/60 59/178/59
f 75/150/75 78/188/78 4/6/4
f 78/189/78 79/190/79 4/6/4
f 2/4/2 4/169/4 79/191/79
f 79/155/79 70/192/70 2/172/2
f 6/17/6 5/193/5 9/194/9
f 3/162/3 9/39/9 5/195/5
f 88/196/88 89/197/89 87/198/87
f 88/196/88 87/184/87 86/199/86
f 71/137/71 80/156/80 77/152/77
f 71/137/71 77/153/77 76/167/76
f 71/137/71 76/151/76 84/185/84
f 71/137/71 84/166/84 87/198/87
f 71/137/71 87/184/87 89/200/89
f 71/137/71 89/197/89 39/63/39
f 71/137/71 39/64/39 38/79/38
f 71/137/71 38/62/38 48/96/48
f 71/137/71 48/78/48 55/105/55
f 71/137/71 55/95/55 58/201/58
f 82/202/82 81/163/81 61/117/61
f 82/202/82 61/203/61 60/115/60
f 3/162/3 23/122/23 1/81/1
f 81/204/81 3/183/3 73/205/73
f 10/206/10 90/207/90 91/208/91
f 54/94/54 47/209/47 11/14/11
f 37/61/37 40/210/40 11/14/11
f 4/211/4 11/15/11 40/65/40
f 40/212/40 88/213/88 4/6/4
f 40/212/40 39/64/39 89/200/89
f 40/212/40 89/197/89 88/186/88
f 81/204/81 73/141/73 62/118/62
f 81/204/81 62/214/62 61/117/61
f 23/35/23 3/183/3 85/215/85
f 73/216/73 5/193/5 8/11/8
f 73/216/73 8/217/8 62/118/62
f 92/218/92 71/219/71 93/220/93
f 94/221/94 71/219/71 92/222/92
f 43/223/43 71/219/71 94/224/94
f 42/225/42 71/219/71 43/68/43
f 53/226/53 71/219/71 42/92/42
f 66/227/66 71/219/71 53/128/53
f 69/228/69 71/219/71 66/134/66
f 74/229/74 71/219/71 69/148/69
f 80/230/80 71/219/71 74/157/74
f 95/231/95 93/232/93 71/233/71
f 32/53/32 90/207/90 10/176/10
f 91/234/91 96/235/96 10/176/10
f 72/236/72 11/15/11 96/237/96
f 72/236/72 57/139/57 11/14/11
f 10/206/10 96/235/96 11/14/11
f 91/234/91 93/232/93 95/238/95
f 91/234/91 95/239/95 96/237/96
f 4/211/4 1/5/1 11/14/11
f 12/240/12 11/15/11 1/81/1
f 80/230/80 79/190/79 77/152/77
f 78/189/78 77/153/77 79/191/79
f 10/206/10 9/39/9 2/172/2
f 3/162/3 2/2/2 9/194/9
f 90/241/90 92/242/92 93/220/93
f 90/241/90 93/232/93 91/208/91
f 32/53/32 94/243/94 92/222/92
f 32/53/32 92/242/92 90/244/90
f 6/17/6 9/39/9 13/245/13
f 71/137/71 72/246/72 95/238/95
f 96/247/96 95/239/95 72/140/72
f 33/174/33 43/69/43 94/224/94
f 33/174/33 94/243/94 32/248/32
f 15/31/15 9/39/9 21/249/21
f 18/250/18 21/32/21 9/194/9
f 27/142/27 1/5/1 28/46/28
