# Blender v2.79 (sub 0) OBJ File: ''
# www.blender.org
mtllib flag.mtl
o flag_큐브.100
v -2.279606 6.245546 -4.098356
v -2.279606 6.509124 -4.098356
v -2.279606 6.509124 -4.117182
v -2.279606 6.245546 -4.117182
v -2.260780 6.509124 -4.117182
v -2.260780 6.245546 -4.117182
v -2.260780 6.509124 -4.098356
v -2.260780 6.245546 -4.098356
v -2.279606 6.500116 -4.100534
v -2.279606 6.688386 -4.100534
v -2.279606 6.594252 -4.477074
v -2.279606 6.594252 -4.477074
v -2.260780 6.594252 -4.477074
v -2.260780 6.594252 -4.477074
v -2.260780 6.688386 -4.100534
v -2.260780 6.500116 -4.100534
vn -1.0000 0.0000 0.0000
vn 0.0000 0.0000 -1.0000
vn 1.0000 0.0000 0.0000
vn 0.0000 0.0000 1.0000
vn 0.0000 -1.0000 0.0000
vn 0.0000 1.0000 0.0000
vn 0.0000 -0.9701 -0.2425
vn 0.0000 0.9701 -0.2425
usemtl None.108
s 1
f 1//1 2//1 3//1 4//1
f 4//2 3//2 5//2 6//2
f 6//3 5//3 7//3 8//3
f 8//4 7//4 2//4 1//4
f 4//5 6//5 8//5 1//5
f 5//6 3//6 2//6 7//6
f 9//1 10//1 11//1 12//1
f 12//4 11//4 13//4 14//4
f 14//3 13//3 15//3 16//3
f 16//4 15//4 10//4 9//4
f 12//7 14//7 16//7 9//7
f 13//8 11//8 10//8 15//8
