# Blender v2.79 (sub 0) OBJ File: ''
# www.blender.org
mtllib nose.mtl
o ì›ë¿”
v -2.000000 0.000000 -0.500000
v 2.000000 -0.000000 0.000000
v -2.000000 -0.097545 -0.490393
v -2.000000 -0.191343 -0.461940
v -2.000000 -0.277785 -0.415735
v -2.000000 -0.353553 -0.353553
v -2.000000 -0.415735 -0.277785
v -2.000000 -0.461940 -0.191343
v -2.000000 -0.490392 -0.097545
v -2.000000 -0.500000 -0.000000
v -2.000000 -0.490392 0.097545
v -2.000000 -0.461940 0.191342
v -2.000000 -0.415735 0.277785
v -2.000000 -0.353553 0.353552
v -2.000000 -0.277785 0.415735
v -2.000000 -0.191343 0.461940
v -2.000000 -0.097545 0.490392
v -2.000000 0.000000 0.500000
v -2.000000 0.097545 0.490392
v -2.000000 0.191343 0.461940
v -2.000000 0.277785 0.415735
v -2.000000 0.353553 0.353552
v -2.000000 0.415735 0.277785
v -2.000000 0.461940 0.191342
v -2.000000 0.490392 0.097545
v -2.000000 0.500000 -0.000000
v -2.000000 0.490392 -0.097545
v -2.000000 0.461940 -0.191343
v -2.000000 0.415735 -0.277785
v -2.000000 0.353553 -0.353555
v -2.000000 0.277785 -0.415735
v -2.000000 0.191340 -0.461940
v -2.000000 0.097545 -0.490393
vt 0.000000 0.000000
vt 1.000000 0.000000
vt 1.000000 1.000000
vt 0.000000 0.000000
vt 1.000000 1.000000
vt 0.000000 0.000000
vt 1.000000 1.000000
vt 0.000000 0.000000
vt 1.000000 1.000000
vt 0.000000 0.000000
vt 1.000000 1.000000
vt 0.000000 0.000000
vt 1.000000 1.000000
vt 0.000000 0.000000
vt 1.000000 1.000000
vt 0.000000 0.000000
vt 1.000000 1.000000
vt 0.000000 0.000000
vt 1.000000 1.000000
vt 0.000000 0.000000
vt 1.000000 1.000000
vt 0.000000 0.000000
vt 1.000000 1.000000
vt 0.000000 0.000000
vt 1.000000 1.000000
vt 0.000000 0.000000
vt 1.000000 1.000000
vt 0.000000 0.000000
vt 1.000000 1.000000
vt 0.000000 0.000000
vt 1.000000 1.000000
vt 0.000000 0.000000
vt 1.000000 1.000000
vt 0.000000 0.000000
vt 1.000000 1.000000
vt 0.000000 0.000000
vt 1.000000 1.000000
vt 0.000000 0.000000
vt 1.000000 1.000000
vt 0.000000 0.000000
vt 1.000000 1.000000
vt 0.000000 0.000000
vt 1.000000 1.000000
vt 0.000000 0.000000
vt 1.000000 1.000000
vt 0.000000 0.000000
vt 1.000000 1.000000
vt 0.000000 0.000000
vt 1.000000 1.000000
vt 0.000000 0.000000
vt 1.000000 1.000000
vt 0.000000 0.000000
vt 1.000000 1.000000
vt 0.000000 0.000000
vt 1.000000 1.000000
vt 0.000000 0.000000
vt 1.000000 1.000000
vt 0.000000 0.000000
vt 1.000000 1.000000
vt 0.000000 0.000000
vt 1.000000 1.000000
vt 0.000000 0.000000
vt 1.000000 1.000000
vt 0.000000 0.000000
vt 1.000000 1.000000
vt 1.000000 0.000000
vt 1.000000 0.000000
vt 1.000000 0.000000
vt 1.000000 0.000000
vt 1.000000 0.000000
vt 1.000000 0.000000
vt 1.000000 0.000000
vt 1.000000 0.000000
vt 1.000000 0.000000
vt 1.000000 0.000000
vt 1.000000 0.000000
vt 1.000000 0.000000
vt 1.000000 0.000000
vt 1.000000 0.000000
vt 1.000000 0.000000
vt 1.000000 0.000000
vt 1.000000 0.000000
vt 1.000000 0.000000
vt 1.000000 0.000000
vt 1.000000 0.000000
vt 1.000000 0.000000
vt 1.000000 0.000000
vt 1.000000 0.000000
vt 1.000000 0.000000
vt 1.000000 0.000000
vt 1.000000 0.000000
vt 1.000000 0.000000
vt 1.000000 0.000000
vn 0.1234 -0.0973 -0.9876
vn 0.1234 -0.2881 -0.9496
vn 0.1234 -0.4678 -0.8752
vn 0.1234 -0.6295 -0.7671
vn 0.1234 -0.7671 -0.6295
vn 0.1234 -0.8752 -0.4678
vn 0.1234 -0.9496 -0.2881
vn 0.1234 -0.9876 -0.0973
vn 0.1234 -0.9876 0.0973
vn 0.1234 -0.9496 0.2881
vn 0.1234 -0.8752 0.4678
vn 0.1234 -0.7671 0.6296
vn 0.1234 -0.6296 0.7671
vn 0.1234 -0.4678 0.8752
vn 0.1234 -0.2881 0.9496
vn 0.1234 -0.0973 0.9876
vn 0.1234 0.0973 0.9876
vn 0.1234 0.2881 0.9496
vn 0.1234 0.4678 0.8752
vn 0.1234 0.6296 0.7671
vn 0.1234 0.7671 0.6296
vn 0.1234 0.8752 0.4678
vn 0.1234 0.9496 0.2881
vn 0.1234 0.9876 0.0973
vn 0.1234 0.9876 -0.0973
vn 0.1234 0.9496 -0.2881
vn 0.1234 0.8752 -0.4678
vn 0.1234 0.7671 -0.6295
vn 0.1234 0.6295 -0.7671
vn 0.1234 0.4678 -0.8752
vn 0.1234 0.2881 -0.9496
vn 0.1234 0.0973 -0.9876
vn -1.0000 0.0000 -0.0000
usemtl None.001
s 1
f 1/1/1 2/2/1 3/3/1
f 3/4/2 2/2/2 4/5/2
f 4/6/3 2/2/3 5/7/3
f 5/8/4 2/2/4 6/9/4
f 6/10/5 2/2/5 7/11/5
f 7/12/6 2/2/6 8/13/6
f 8/14/7 2/2/7 9/15/7
f 9/16/8 2/2/8 10/17/8
f 10/18/9 2/2/9 11/19/9
f 11/20/10 2/2/10 12/21/10
f 12/22/11 2/2/11 13/23/11
f 13/24/12 2/2/12 14/25/12
f 14/26/13 2/2/13 15/27/13
f 15/28/14 2/2/14 16/29/14
f 16/30/15 2/2/15 17/31/15
f 17/32/16 2/2/16 18/33/16
f 18/34/17 2/2/17 19/35/17
f 19/36/18 2/2/18 20/37/18
f 20/38/19 2/2/19 21/39/19
f 21/40/20 2/2/20 22/41/20
f 22/42/21 2/2/21 23/43/21
f 23/44/22 2/2/22 24/45/22
f 24/46/23 2/2/23 25/47/23
f 25/48/24 2/2/24 26/49/24
f 26/50/25 2/2/25 27/51/25
f 27/52/26 2/2/26 28/53/26
f 28/54/27 2/2/27 29/55/27
f 29/56/28 2/2/28 30/57/28
f 30/58/29 2/2/29 31/59/29
f 31/60/30 2/2/30 32/61/30
f 32/62/31 2/2/31 33/63/31
f 33/64/32 2/2/32 1/65/32
f 9/16/33 17/66/33 25/47/33
f 33/64/33 1/67/33 3/3/33
f 3/4/33 4/68/33 5/7/33
f 5/8/33 6/69/33 7/11/33
f 7/12/33 8/70/33 5/7/33
f 8/14/33 9/71/33 5/7/33
f 9/16/33 10/72/33 11/19/33
f 11/20/33 12/73/33 9/15/33
f 12/22/33 13/74/33 9/15/33
f 13/24/33 14/75/33 17/31/33
f 14/26/33 15/76/33 17/31/33
f 15/28/33 16/77/33 17/31/33
f 17/32/33 18/78/33 19/35/33
f 19/36/33 20/79/33 21/39/33
f 21/40/33 22/80/33 23/43/33
f 23/44/33 24/81/33 25/47/33
f 25/48/33 26/82/33 27/51/33
f 27/52/33 28/83/33 29/55/33
f 29/56/33 30/84/33 33/63/33
f 30/58/33 31/85/33 33/63/33
f 31/60/33 32/86/33 33/63/33
f 33/64/33 3/87/33 5/7/33
f 17/32/33 19/88/33 25/47/33
f 19/36/33 21/89/33 25/47/33
f 21/40/33 23/90/33 25/47/33
f 25/48/33 27/91/33 33/63/33
f 27/52/33 29/92/33 33/63/33
f 33/64/33 5/93/33 9/15/33
f 9/16/33 13/74/33 17/31/33
f 33/64/33 9/71/33 25/47/33
