# Blender v2.79 (sub 0) OBJ File: ''
# www.blender.org
mtllib onebyone.mtl
o onebyone_onebyone_실린더_실린더.000
v 0.000000 0.555556 -0.250000
v 0.048768 0.333333 -0.245192
v 0.000000 0.333333 -0.250000
v 0.048768 0.555556 -0.245192
v 0.095672 0.333333 -0.230968
v 0.095672 0.555556 -0.230968
v 0.138888 0.333333 -0.207864
v 0.138888 0.555556 -0.207864
v 0.176776 0.333333 -0.176776
v 0.176776 0.555556 -0.176776
v 0.207864 0.333333 -0.138888
v 0.207864 0.555556 -0.138888
v 0.230968 0.333333 -0.095672
v 0.230968 0.555556 -0.095672
v 0.245192 0.333333 -0.048768
v 0.245192 0.555556 -0.048768
v 0.250000 0.333333 0.000000
v 0.250000 0.555556 0.000000
v 0.245192 0.333333 0.048776
v 0.245192 0.555556 0.048776
v 0.230968 0.333333 0.095672
v 0.230968 0.555556 0.095672
v 0.207864 0.333333 0.138896
v 0.207864 0.555556 0.138896
v 0.176776 0.333333 0.176776
v 0.176776 0.555556 0.176776
v 0.138888 0.333333 0.207872
v 0.138888 0.555556 0.207872
v 0.095672 0.333333 0.230968
v 0.095672 0.555556 0.230968
v 0.048768 0.333333 0.245200
v 0.048768 0.555556 0.245200
v 0.000000 0.333333 0.250000
v 0.000000 0.555556 0.250000
v -0.048768 0.333333 0.245200
v -0.048768 0.555556 0.245200
v -0.095672 0.333333 0.230968
v -0.095672 0.555556 0.230968
v -0.138888 0.333333 0.207872
v -0.138888 0.555556 0.207872
v -0.176776 0.333333 0.176776
v -0.176776 0.555556 0.176776
v -0.207864 0.333333 0.138896
v -0.207864 0.555556 0.138896
v -0.230968 0.333333 0.095672
v -0.230968 0.555556 0.095672
v -0.245192 0.333333 0.048776
v -0.245192 0.555556 0.048776
v -0.250000 0.333333 0.000000
v -0.250000 0.555556 0.000000
v -0.245192 0.333333 -0.048768
v -0.245192 0.555556 -0.048768
v -0.230968 0.333333 -0.095672
v -0.230968 0.555556 -0.095672
v -0.207864 0.333333 -0.138888
v -0.207864 0.555556 -0.138888
v -0.176776 0.333333 -0.176776
v -0.176776 0.555556 -0.176776
v -0.138888 0.333333 -0.207864
v -0.138888 0.555556 -0.207864
v -0.095672 0.333333 -0.230968
v -0.095672 0.555556 -0.230968
v -0.048768 0.333333 -0.245192
v -0.048768 0.555556 -0.245192
v -0.500000 0.444444 0.500000
v -0.500000 -0.444444 -0.500000
v -0.500000 -0.444445 0.500000
v -0.500000 0.444445 -0.500000
v 0.500000 -0.444444 -0.500000
v 0.500000 0.444445 -0.500000
v 0.500000 -0.444445 0.500000
v 0.500000 0.444444 0.500000
vt 0.000000 0.000000
vt 1.000000 0.000000
vt 1.000000 1.000000
vt 0.000000 0.000000
vt 1.000000 0.000000
vt 1.000000 1.000000
vt 0.000000 0.000000
vt 1.000000 0.000000
vt 1.000000 1.000000
vt 0.000000 0.000000
vt 1.000000 0.000000
vt 1.000000 1.000000
vt 0.000000 0.000000
vt 1.000000 0.000000
vt 1.000000 1.000000
vt 0.000000 0.000000
vt 1.000000 0.000000
vt 1.000000 1.000000
vt 0.000000 0.000000
vt 1.000000 0.000000
vt 1.000000 1.000000
vt 0.000000 0.000000
vt 1.000000 0.000000
vt 1.000000 1.000000
vt 0.000000 0.000000
vt 1.000000 0.000000
vt 1.000000 1.000000
vt 0.000000 0.000000
vt 1.000000 0.000000
vt 1.000000 1.000000
vt 0.000000 0.000000
vt 1.000000 0.000000
vt 1.000000 1.000000
vt 0.000000 0.000000
vt 1.000000 0.000000
vt 1.000000 1.000000
vt 0.000000 0.000000
vt 1.000000 0.000000
vt 1.000000 1.000000
vt 0.000000 0.000000
vt 1.000000 0.000000
vt 1.000000 1.000000
vt 0.000000 0.000000
vt 1.000000 0.000000
vt 1.000000 1.000000
vt 0.000000 0.000000
vt 1.000000 0.000000
vt 1.000000 1.000000
vt 0.000000 0.000000
vt 1.000000 0.000000
vt 1.000000 1.000000
vt 0.000000 0.000000
vt 1.000000 0.000000
vt 1.000000 1.000000
vt 0.000000 0.000000
vt 1.000000 0.000000
vt 1.000000 1.000000
vt 0.000000 0.000000
vt 1.000000 0.000000
vt 1.000000 1.000000
vt 0.000000 0.000000
vt 1.000000 0.000000
vt 1.000000 1.000000
vt 0.000000 0.000000
vt 1.000000 0.000000
vt 1.000000 1.000000
vt 0.000000 0.000000
vt 1.000000 0.000000
vt 1.000000 1.000000
vt 0.000000 0.000000
vt 1.000000 0.000000
vt 1.000000 1.000000
vt 0.000000 0.000000
vt 1.000000 0.000000
vt 1.000000 1.000000
vt 0.000000 0.000000
vt 1.000000 0.000000
vt 1.000000 1.000000
vt 0.000000 0.000000
vt 1.000000 0.000000
vt 1.000000 1.000000
vt 0.000000 0.000000
vt 1.000000 0.000000
vt 1.000000 1.000000
vt 0.000000 0.000000
vt 1.000000 0.000000
vt 1.000000 1.000000
vt 0.000000 0.000000
vt 1.000000 0.000000
vt 1.000000 1.000000
vt 1.000000 0.000000
vt 1.000000 1.000000
vt 0.000000 0.000000
vt 1.000000 0.000000
vt 1.000000 1.000000
vt 0.000000 0.000000
vt 1.000000 0.000000
vt 1.000000 1.000000
vt 0.000000 0.000000
vt 0.000000 0.000000
vt 1.000000 0.000000
vt 1.000000 1.000000
vt 0.000000 0.000000
vt 1.000000 0.000000
vt 1.000000 1.000000
vt 0.000000 0.000000
vt 1.000000 0.000000
vt 1.000000 1.000000
vt 0.000000 0.000000
vt 1.000000 0.000000
vt 1.000000 1.000000
vt 0.000000 0.000000
vt 1.000000 0.000000
vt 1.000000 1.000000
vt 1.000000 0.000000
vt 1.000000 0.000000
vt 1.000000 0.000000
vt 1.000000 0.000000
vt 1.000000 0.000000
vt 1.000000 0.000000
vt 1.000000 0.000000
vt 1.000000 0.000000
vt 1.000000 0.000000
vt 1.000000 0.000000
vt 1.000000 0.000000
vt 1.000000 0.000000
vt 1.000000 0.000000
vt 1.000000 0.000000
vt 1.000000 0.000000
vt 1.000000 0.000000
vt 1.000000 0.000000
vt 1.000000 0.000000
vt 1.000000 0.000000
vt 1.000000 0.000000
vt 1.000000 0.000000
vt 1.000000 0.000000
vt 1.000000 0.000000
vt 1.000000 0.000000
vt 1.000000 0.000000
vt 1.000000 0.000000
vt 1.000000 0.000000
vt 1.000000 0.000000
vt 1.000000 0.000000
vt 1.000000 1.000000
vt 1.000000 0.000000
vt 1.000000 1.000000
vt 1.000000 1.000000
vt 1.000000 1.000000
vt 1.000000 1.000000
vt 1.000000 1.000000
vt 1.000000 1.000000
vt 1.000000 1.000000
vt 1.000000 1.000000
vt 1.000000 1.000000
vt 1.000000 1.000000
vt 1.000000 0.000000
vt 0.000000 0.000000
vt 0.000000 0.000000
vt 0.000000 0.000000
vt 0.000000 0.000000
vt 0.000000 0.000000
vt 0.000000 0.000000
vt 0.000000 0.000000
vt 0.000000 0.000000
vt 0.000000 0.000000
vt 0.000000 0.000000
vt 0.000000 0.000000
vt 0.000000 0.000000
vt 0.000000 0.000000
vt 0.000000 0.000000
vt 0.000000 0.000000
vt 0.000000 0.000000
vt 0.000000 0.000000
vt 0.000000 0.000000
vt 0.000000 0.000000
vt 1.000000 0.000000
vt 1.000000 0.000000
vt 1.000000 0.000000
vt 1.000000 1.000000
vn 0.0976 -0.0000 -0.9952
vn 0.0981 0.0000 -0.9952
vn 0.2902 0.0000 -0.9570
vn 0.4715 0.0000 -0.8819
vn 0.6343 0.0000 -0.7731
vn 0.7731 0.0000 -0.6343
vn 0.8819 0.0000 -0.4715
vn 0.9570 0.0000 -0.2902
vn 0.9952 0.0000 -0.0981
vn 0.9952 0.0000 0.0981
vn 0.9570 -0.0000 0.2903
vn 0.8819 -0.0000 0.4714
vn 0.7730 -0.0000 0.6344
vn 0.6344 -0.0000 0.7730
vn 0.4713 -0.0000 0.8820
vn 0.2904 -0.0000 0.9569
vn 0.0980 -0.0000 0.9952
vn -0.0980 -0.0000 0.9952
vn -0.2904 -0.0000 0.9569
vn -0.4713 -0.0000 0.8820
vn -0.6344 -0.0000 0.7730
vn -0.7730 -0.0000 0.6344
vn -0.8819 -0.0000 0.4714
vn -0.9570 -0.0000 0.2903
vn -0.9952 -0.0000 0.0981
vn -0.9952 0.0000 -0.0981
vn -0.9570 0.0000 -0.2902
vn -0.8819 0.0000 -0.4715
vn -0.7731 0.0000 -0.6343
vn -0.6343 0.0000 -0.7731
vn -0.4715 0.0000 -0.8819
vn -0.0000 1.0000 -0.0000
vn -0.2902 0.0000 -0.9570
vn -0.0981 0.0000 -0.9952
vn -0.0976 0.0000 -0.9952
vn 0.0000 -1.0000 -0.0000
vn -1.0000 0.0000 0.0000
vn 0.0000 0.0000 -1.0000
vn 1.0000 0.0000 0.0000
vn 0.0000 -0.0000 1.0000
usemtl None.003
s 1
f 1/1/1 2/2/2 3/3/2
f 4/4/3 5/5/3 2/6/3
f 6/7/4 7/8/4 5/9/4
f 8/10/5 9/11/5 7/12/5
f 10/13/6 11/14/6 9/15/6
f 12/16/7 13/17/7 11/18/7
f 14/19/8 15/20/8 13/21/8
f 16/22/9 17/23/9 15/24/9
f 18/25/10 19/26/10 17/27/10
f 20/28/11 21/29/11 19/30/11
f 22/31/12 23/32/12 21/33/12
f 24/34/13 25/35/13 23/36/13
f 26/37/14 27/38/14 25/39/14
f 28/40/15 29/41/15 27/42/15
f 30/43/16 31/44/16 29/45/16
f 32/46/17 33/47/17 31/48/17
f 34/49/18 35/50/18 33/51/18
f 36/52/19 37/53/19 35/54/19
f 38/55/20 39/56/20 37/57/20
f 40/58/21 41/59/21 39/60/21
f 42/61/22 43/62/22 41/63/22
f 44/64/23 45/65/23 43/66/23
f 46/67/24 47/68/24 45/69/24
f 48/70/25 49/71/25 47/72/25
f 50/73/26 51/74/26 49/75/26
f 52/76/27 53/77/27 51/78/27
f 54/79/28 55/80/28 53/81/28
f 56/82/29 57/83/29 55/84/29
f 58/85/30 59/86/30 57/87/30
f 60/88/31 61/89/31 59/90/31
f 54/79/32 38/91/32 22/92/32
f 62/93/33 63/94/33 61/95/33
f 64/96/34 3/97/35 63/98/34
f 15/99/36 31/44/36 47/72/36
f 65/100/37 66/101/37 67/102/37
f 68/103/38 69/104/38 66/105/38
f 70/106/39 71/107/39 69/108/39
f 72/109/40 67/110/40 71/111/40
f 69/112/36 67/110/36 66/105/36
f 68/103/32 72/113/32 70/114/32
f 1/1/1 4/115/2 2/6/2
f 4/4/3 6/116/3 5/9/3
f 6/7/4 8/117/4 7/12/4
f 8/10/5 10/118/5 9/15/5
f 10/13/6 12/119/6 11/18/6
f 12/16/7 14/120/7 13/21/7
f 14/19/8 16/121/8 15/24/8
f 16/22/9 18/122/9 17/27/9
f 18/25/10 20/123/10 19/30/10
f 20/28/11 22/124/11 21/33/11
f 22/31/12 24/125/12 23/36/12
f 24/34/13 26/126/13 25/39/13
f 26/37/14 28/127/14 27/42/14
f 28/40/15 30/128/15 29/45/15
f 30/43/16 32/129/16 31/48/16
f 32/46/17 34/130/17 33/51/17
f 34/49/18 36/131/18 35/54/18
f 36/52/19 38/91/19 37/57/19
f 38/55/20 40/132/20 39/60/20
f 40/58/21 42/133/21 41/63/21
f 42/61/22 44/134/22 43/66/22
f 44/64/23 46/135/23 45/69/23
f 46/67/24 48/136/24 47/72/24
f 48/70/25 50/137/25 49/75/25
f 50/73/26 52/138/26 51/78/26
f 52/76/27 54/139/27 53/81/27
f 54/79/28 56/140/28 55/84/28
f 56/82/29 58/141/29 57/87/29
f 58/85/30 60/142/30 59/90/30
f 60/88/31 62/143/31 61/95/31
f 6/7/32 4/115/32 1/144/32
f 1/1/32 64/145/32 6/146/32
f 64/96/32 62/143/32 6/146/32
f 62/93/32 60/142/32 58/147/32
f 58/85/32 56/140/32 54/148/32
f 54/79/32 52/138/32 50/149/32
f 50/73/32 48/136/32 54/148/32
f 48/70/32 46/135/32 54/148/32
f 46/67/32 44/134/32 38/150/32
f 44/64/32 42/133/32 38/150/32
f 42/61/32 40/132/32 38/150/32
f 38/55/32 36/131/32 34/151/32
f 34/49/32 32/129/32 30/152/32
f 30/43/32 28/127/32 26/153/32
f 26/37/32 24/125/32 22/92/32
f 22/31/32 20/123/32 18/154/32
f 18/25/32 16/121/32 22/92/32
f 16/22/32 14/120/32 22/92/32
f 14/19/32 12/119/32 10/155/32
f 10/13/32 8/117/32 6/146/32
f 62/93/32 58/141/32 6/146/32
f 58/85/32 54/139/32 6/146/32
f 38/55/32 34/130/32 22/92/32
f 34/49/32 30/128/32 22/92/32
f 30/43/32 26/126/32 22/92/32
f 14/19/32 10/118/32 22/92/32
f 10/13/32 6/116/32 22/92/32
f 54/79/32 46/135/32 38/150/32
f 6/7/32 54/139/32 22/92/32
f 62/93/33 64/145/33 63/98/33
f 64/96/34 1/156/34 3/3/35
f 63/157/36 3/97/36 2/6/36
f 2/158/36 5/5/36 7/12/36
f 7/159/36 9/11/36 11/18/36
f 11/160/36 13/17/36 7/12/36
f 13/161/36 15/20/36 7/12/36
f 15/99/36 17/23/36 19/30/36
f 19/162/36 21/29/36 15/24/36
f 21/163/36 23/32/36 15/24/36
f 23/164/36 25/35/36 31/48/36
f 25/165/36 27/38/36 31/48/36
f 27/166/36 29/41/36 31/48/36
f 31/167/36 33/47/36 35/54/36
f 35/168/36 37/53/36 39/60/36
f 39/169/36 41/59/36 43/66/36
f 43/170/36 45/65/36 47/72/36
f 47/171/36 49/71/36 51/78/36
f 51/172/36 53/77/36 55/84/36
f 55/173/36 57/83/36 63/98/36
f 57/174/36 59/86/36 63/98/36
f 59/175/36 61/89/36 63/98/36
f 63/157/36 2/2/36 7/12/36
f 31/167/36 35/50/36 47/72/36
f 35/168/36 39/56/36 47/72/36
f 39/169/36 43/62/36 47/72/36
f 47/171/36 51/74/36 63/98/36
f 51/172/36 55/80/36 63/98/36
f 63/157/36 7/8/36 15/24/36
f 15/99/36 23/32/36 31/48/36
f 63/157/36 15/20/36 47/72/36
f 65/100/37 68/176/37 66/105/37
f 68/103/38 70/177/38 69/108/38
f 70/106/39 72/113/39 71/111/39
f 72/109/40 65/178/40 67/102/40
f 69/112/36 71/107/36 67/102/36
f 68/103/32 65/178/32 72/179/32
