# Blender v2.79 (sub 0) OBJ File: 'onebytwo.blend'
# www.blender.org
mtllib onebytwo.mtl
o 실린더.001_실린더
v 0.000000 0.300000 0.250000
v 0.000000 0.700000 0.250000
v 0.048773 0.300000 0.254804
v 0.048773 0.700000 0.254804
v 0.095671 0.300000 0.269030
v 0.095671 0.700000 0.269030
v 0.138893 0.300000 0.292133
v 0.138893 0.700000 0.292133
v 0.176777 0.300000 0.323223
v 0.176777 0.700000 0.323223
v 0.207867 0.300000 0.361107
v 0.207867 0.700000 0.361107
v 0.230970 0.300000 0.404329
v 0.230970 0.700000 0.404329
v 0.245196 0.300000 0.451227
v 0.245196 0.700000 0.451227
v 0.250000 0.300000 0.500000
v 0.250000 0.700000 0.500000
v 0.245196 0.300000 0.548773
v 0.245196 0.700000 0.548773
v 0.230970 0.300000 0.595671
v 0.230970 0.700000 0.595671
v 0.207867 0.300000 0.638893
v 0.207867 0.700000 0.638893
v 0.176777 0.300000 0.676777
v 0.176777 0.700000 0.676777
v 0.138893 0.300000 0.707867
v 0.138893 0.700000 0.707867
v 0.095671 0.300000 0.730970
v 0.095671 0.700000 0.730970
v 0.048773 0.300000 0.745196
v 0.048773 0.700000 0.745196
v -0.000000 0.300000 0.750000
v -0.000000 0.700000 0.750000
v -0.048773 0.300000 0.745196
v -0.048773 0.700000 0.745196
v -0.095671 0.300000 0.730970
v -0.095671 0.700000 0.730970
v -0.138893 0.300000 0.707867
v -0.138893 0.700000 0.707867
v -0.176777 0.300000 0.676777
v -0.176777 0.700000 0.676777
v -0.207868 0.300000 0.638892
v -0.207868 0.700000 0.638892
v -0.230970 0.300000 0.595671
v -0.230970 0.700000 0.595671
v -0.245196 0.300000 0.548772
v -0.245196 0.700000 0.548772
v -0.250000 0.300000 0.500000
v -0.250000 0.700000 0.500000
v -0.245196 0.300000 0.451227
v -0.245196 0.700000 0.451227
v -0.230970 0.300000 0.404329
v -0.230970 0.700000 0.404329
v -0.207867 0.300000 0.361107
v -0.207867 0.700000 0.361107
v -0.176776 0.300000 0.323223
v -0.176776 0.700000 0.323223
v -0.138892 0.300000 0.292132
v -0.138892 0.700000 0.292132
v -0.095671 0.300000 0.269030
v -0.095671 0.700000 0.269030
v -0.048772 0.300000 0.254804
v -0.048772 0.700000 0.254804
v 0.000000 0.300000 -0.750000
v 0.000000 0.700000 -0.750000
v 0.048773 0.300000 -0.745196
v 0.048773 0.700000 -0.745196
v 0.095671 0.300000 -0.730970
v 0.095671 0.700000 -0.730970
v 0.138893 0.300000 -0.707867
v 0.138893 0.700000 -0.707867
v 0.176777 0.300000 -0.676777
v 0.176777 0.700000 -0.676777
v 0.207867 0.300000 -0.638893
v 0.207867 0.700000 -0.638893
v 0.230970 0.300000 -0.595671
v 0.230970 0.700000 -0.595671
v 0.245196 0.300000 -0.548773
v 0.245196 0.700000 -0.548773
v 0.250000 0.300000 -0.500000
v 0.250000 0.700000 -0.500000
v 0.245196 0.300000 -0.451227
v 0.245196 0.700000 -0.451227
v 0.230970 0.300000 -0.404329
v 0.230970 0.700000 -0.404329
v 0.207867 0.300000 -0.361107
v 0.207867 0.700000 -0.361107
v 0.176777 0.300000 -0.323223
v 0.176777 0.700000 -0.323223
v 0.138893 0.300000 -0.292133
v 0.138893 0.700000 -0.292133
v 0.095671 0.300000 -0.269030
v 0.095671 0.700000 -0.269030
v 0.048773 0.300000 -0.254804
v 0.048773 0.700000 -0.254804
v -0.000000 0.300000 -0.250000
v -0.000000 0.700000 -0.250000
v -0.048773 0.300000 -0.254804
v -0.048773 0.700000 -0.254804
v -0.095671 0.300000 -0.269030
v -0.095671 0.700000 -0.269030
v -0.138893 0.300000 -0.292133
v -0.138893 0.700000 -0.292133
v -0.176777 0.300000 -0.323223
v -0.176777 0.700000 -0.323223
v -0.207868 0.300000 -0.361108
v -0.207868 0.700000 -0.361108
v -0.230970 0.300000 -0.404329
v -0.230970 0.700000 -0.404329
v -0.245196 0.300000 -0.451228
v -0.245196 0.700000 -0.451228
v -0.250000 0.300000 -0.500000
v -0.250000 0.700000 -0.500000
v -0.245196 0.300000 -0.548773
v -0.245196 0.700000 -0.548773
v -0.230970 0.300000 -0.595671
v -0.230970 0.700000 -0.595671
v -0.207867 0.300000 -0.638893
v -0.207867 0.700000 -0.638893
v -0.176776 0.300000 -0.676777
v -0.176776 0.700000 -0.676777
v -0.138892 0.300000 -0.707868
v -0.138892 0.700000 -0.707868
v -0.095671 0.300000 -0.730970
v -0.095671 0.700000 -0.730970
v -0.048772 0.300000 -0.745196
v -0.048772 0.700000 -0.745196
v -0.500000 -0.300000 1.000000
v -0.500000 0.500000 1.000000
v -0.500000 -0.300000 -1.000000
v -0.500000 0.500000 -1.000000
v 0.500000 -0.300000 1.000000
v 0.500000 0.500000 1.000000
v 0.500000 -0.300000 -1.000000
v 0.500000 0.500000 -1.000000
vt 0.000000 0.000000
vt 1.000000 0.000000
vt 1.000000 1.000000
vt 0.000000 0.000000
vt 1.000000 0.000000
vt 1.000000 1.000000
vt 0.000000 0.000000
vt 1.000000 0.000000
vt 1.000000 1.000000
vt 0.000000 0.000000
vt 1.000000 0.000000
vt 1.000000 1.000000
vt 0.000000 0.000000
vt 1.000000 0.000000
vt 1.000000 1.000000
vt 0.000000 0.000000
vt 1.000000 0.000000
vt 1.000000 1.000000
vt 0.000000 0.000000
vt 1.000000 0.000000
vt 1.000000 1.000000
vt 0.000000 0.000000
vt 1.000000 0.000000
vt 1.000000 1.000000
vt 0.000000 0.000000
vt 1.000000 0.000000
vt 1.000000 1.000000
vt 0.000000 0.000000
vt 1.000000 0.000000
vt 1.000000 1.000000
vt 0.000000 0.000000
vt 1.000000 0.000000
vt 1.000000 1.000000
vt 0.000000 0.000000
vt 1.000000 0.000000
vt 1.000000 1.000000
vt 0.000000 0.000000
vt 1.000000 0.000000
vt 1.000000 1.000000
vt 0.000000 0.000000
vt 1.000000 0.000000
vt 1.000000 1.000000
vt 0.000000 0.000000
vt 1.000000 0.000000
vt 1.000000 1.000000
vt 0.000000 0.000000
vt 1.000000 0.000000
vt 1.000000 1.000000
vt 0.000000 0.000000
vt 1.000000 0.000000
vt 1.000000 1.000000
vt 0.000000 0.000000
vt 1.000000 0.000000
vt 1.000000 1.000000
vt 0.000000 0.000000
vt 1.000000 0.000000
vt 1.000000 1.000000
vt 0.000000 0.000000
vt 1.000000 0.000000
vt 1.000000 1.000000
vt 0.000000 0.000000
vt 1.000000 0.000000
vt 1.000000 1.000000
vt 0.000000 0.000000
vt 1.000000 0.000000
vt 1.000000 1.000000
vt 0.000000 0.000000
vt 1.000000 0.000000
vt 1.000000 1.000000
vt 0.000000 0.000000
vt 1.000000 0.000000
vt 1.000000 1.000000
vt 0.000000 0.000000
vt 1.000000 0.000000
vt 1.000000 1.000000
vt 0.000000 0.000000
vt 1.000000 0.000000
vt 1.000000 1.000000
vt 0.000000 0.000000
vt 1.000000 0.000000
vt 1.000000 1.000000
vt 0.000000 0.000000
vt 1.000000 0.000000
vt 1.000000 1.000000
vt 0.000000 0.000000
vt 1.000000 0.000000
vt 1.000000 1.000000
vt 0.000000 0.000000
vt 1.000000 0.000000
vt 1.000000 1.000000
vt 1.000000 0.000000
vt 1.000000 1.000000
vt 0.000000 0.000000
vt 1.000000 0.000000
vt 1.000000 1.000000
vt 0.000000 0.000000
vt 1.000000 0.000000
vt 1.000000 1.000000
vt 0.000000 0.000000
vt 0.000000 0.000000
vt 1.000000 0.000000
vt 1.000000 1.000000
vt 0.000000 0.000000
vt 1.000000 0.000000
vt 1.000000 1.000000
vt 0.000000 0.000000
vt 1.000000 0.000000
vt 1.000000 1.000000
vt 0.000000 0.000000
vt 1.000000 0.000000
vt 1.000000 1.000000
vt 0.000000 0.000000
vt 1.000000 0.000000
vt 1.000000 1.000000
vt 0.000000 0.000000
vt 1.000000 0.000000
vt 1.000000 1.000000
vt 0.000000 0.000000
vt 1.000000 0.000000
vt 1.000000 1.000000
vt 0.000000 0.000000
vt 1.000000 0.000000
vt 1.000000 1.000000
vt 0.000000 0.000000
vt 1.000000 0.000000
vt 1.000000 1.000000
vt 0.000000 0.000000
vt 1.000000 0.000000
vt 1.000000 1.000000
vt 0.000000 0.000000
vt 1.000000 0.000000
vt 1.000000 1.000000
vt 0.000000 0.000000
vt 1.000000 0.000000
vt 1.000000 1.000000
vt 0.000000 0.000000
vt 1.000000 0.000000
vt 1.000000 1.000000
vt 0.000000 0.000000
vt 1.000000 0.000000
vt 1.000000 1.000000
vt 0.000000 0.000000
vt 1.000000 0.000000
vt 1.000000 1.000000
vt 0.000000 0.000000
vt 1.000000 0.000000
vt 1.000000 1.000000
vt 0.000000 0.000000
vt 1.000000 0.000000
vt 1.000000 1.000000
vt 0.000000 0.000000
vt 1.000000 0.000000
vt 1.000000 1.000000
vt 0.000000 0.000000
vt 1.000000 0.000000
vt 1.000000 1.000000
vt 0.000000 0.000000
vt 1.000000 0.000000
vt 1.000000 1.000000
vt 0.000000 0.000000
vt 1.000000 0.000000
vt 1.000000 1.000000
vt 0.000000 0.000000
vt 1.000000 0.000000
vt 1.000000 1.000000
vt 0.000000 0.000000
vt 1.000000 0.000000
vt 1.000000 1.000000
vt 0.000000 0.000000
vt 1.000000 0.000000
vt 1.000000 1.000000
vt 0.000000 0.000000
vt 1.000000 0.000000
vt 1.000000 1.000000
vt 0.000000 0.000000
vt 1.000000 0.000000
vt 1.000000 1.000000
vt 0.000000 0.000000
vt 1.000000 0.000000
vt 1.000000 1.000000
vt 0.000000 0.000000
vt 1.000000 0.000000
vt 1.000000 1.000000
vt 0.000000 0.000000
vt 1.000000 0.000000
vt 1.000000 1.000000
vt 0.000000 0.000000
vt 1.000000 0.000000
vt 1.000000 1.000000
vt 1.000000 0.000000
vt 1.000000 1.000000
vt 0.000000 0.000000
vt 1.000000 0.000000
vt 1.000000 1.000000
vt 0.000000 0.000000
vt 1.000000 0.000000
vt 1.000000 1.000000
vt 0.000000 0.000000
vt 0.000000 0.000000
vt 1.000000 0.000000
vt 1.000000 1.000000
vt 0.000000 0.000000
vt 1.000000 0.000000
vt 1.000000 1.000000
vt 0.000000 0.000000
vt 1.000000 0.000000
vt 1.000000 1.000000
vt 0.000000 0.000000
vt 1.000000 0.000000
vt 1.000000 1.000000
vt 0.000000 0.000000
vt 1.000000 0.000000
vt 1.000000 1.000000
vt 1.000000 0.000000
vt 1.000000 0.000000
vt 1.000000 0.000000
vt 1.000000 0.000000
vt 1.000000 0.000000
vt 1.000000 0.000000
vt 1.000000 0.000000
vt 1.000000 0.000000
vt 1.000000 0.000000
vt 1.000000 0.000000
vt 1.000000 0.000000
vt 1.000000 0.000000
vt 1.000000 0.000000
vt 1.000000 0.000000
vt 1.000000 0.000000
vt 1.000000 0.000000
vt 1.000000 0.000000
vt 1.000000 0.000000
vt 1.000000 0.000000
vt 1.000000 0.000000
vt 1.000000 0.000000
vt 1.000000 0.000000
vt 1.000000 0.000000
vt 1.000000 0.000000
vt 1.000000 0.000000
vt 1.000000 0.000000
vt 1.000000 0.000000
vt 1.000000 0.000000
vt 1.000000 0.000000
vt 1.000000 1.000000
vt 1.000000 0.000000
vt 1.000000 1.000000
vt 1.000000 1.000000
vt 1.000000 1.000000
vt 1.000000 1.000000
vt 1.000000 1.000000
vt 1.000000 1.000000
vt 1.000000 1.000000
vt 1.000000 1.000000
vt 1.000000 1.000000
vt 1.000000 1.000000
vt 1.000000 0.000000
vt 0.000000 0.000000
vt 0.000000 0.000000
vt 0.000000 0.000000
vt 0.000000 0.000000
vt 0.000000 0.000000
vt 0.000000 0.000000
vt 0.000000 0.000000
vt 0.000000 0.000000
vt 0.000000 0.000000
vt 0.000000 0.000000
vt 0.000000 0.000000
vt 0.000000 0.000000
vt 0.000000 0.000000
vt 0.000000 0.000000
vt 0.000000 0.000000
vt 0.000000 0.000000
vt 0.000000 0.000000
vt 0.000000 0.000000
vt 0.000000 0.000000
vt 1.000000 0.000000
vt 1.000000 0.000000
vt 1.000000 0.000000
vt 1.000000 0.000000
vt 1.000000 0.000000
vt 1.000000 0.000000
vt 1.000000 0.000000
vt 1.000000 0.000000
vt 1.000000 0.000000
vt 1.000000 0.000000
vt 1.000000 0.000000
vt 1.000000 0.000000
vt 1.000000 0.000000
vt 1.000000 0.000000
vt 1.000000 0.000000
vt 1.000000 0.000000
vt 1.000000 0.000000
vt 1.000000 0.000000
vt 1.000000 0.000000
vt 1.000000 0.000000
vt 1.000000 0.000000
vt 1.000000 0.000000
vt 1.000000 0.000000
vt 1.000000 0.000000
vt 1.000000 0.000000
vt 1.000000 0.000000
vt 1.000000 0.000000
vt 1.000000 0.000000
vt 1.000000 0.000000
vt 1.000000 1.000000
vt 1.000000 0.000000
vt 1.000000 1.000000
vt 1.000000 1.000000
vt 1.000000 1.000000
vt 1.000000 1.000000
vt 1.000000 1.000000
vt 1.000000 1.000000
vt 1.000000 1.000000
vt 1.000000 1.000000
vt 1.000000 1.000000
vt 1.000000 0.000000
vt 0.000000 0.000000
vt 0.000000 0.000000
vt 0.000000 0.000000
vt 0.000000 0.000000
vt 0.000000 0.000000
vt 0.000000 0.000000
vt 0.000000 0.000000
vt 0.000000 0.000000
vt 0.000000 0.000000
vt 0.000000 0.000000
vt 0.000000 0.000000
vt 0.000000 0.000000
vt 0.000000 0.000000
vt 0.000000 0.000000
vt 0.000000 0.000000
vt 0.000000 0.000000
vt 0.000000 0.000000
vt 0.000000 0.000000
vt 0.000000 0.000000
vt 1.000000 0.000000
vt 1.000000 0.000000
vt 1.000000 0.000000
vt 1.000000 1.000000
vn 0.0980 0.0000 -0.9952
vn 0.2903 0.0000 -0.9569
vn 0.4714 0.0000 -0.8819
vn 0.6344 0.0000 -0.7730
vn 0.7730 0.0000 -0.6344
vn 0.8819 0.0000 -0.4714
vn 0.9569 0.0000 -0.2903
vn 0.9952 0.0000 -0.0980
vn 0.9952 0.0000 0.0980
vn 0.9569 0.0000 0.2903
vn 0.8819 0.0000 0.4714
vn 0.7730 0.0000 0.6344
vn 0.6344 0.0000 0.7730
vn 0.4714 0.0000 0.8819
vn 0.2903 0.0000 0.9569
vn 0.0980 0.0000 0.9952
vn -0.0980 0.0000 0.9952
vn -0.2903 0.0000 0.9569
vn -0.4714 0.0000 0.8819
vn -0.6344 0.0000 0.7730
vn -0.7730 0.0000 0.6344
vn -0.8819 0.0000 0.4714
vn -0.9569 0.0000 0.2903
vn -0.9952 0.0000 0.0980
vn -0.9952 0.0000 -0.0980
vn -0.9569 0.0000 -0.2903
vn -0.8819 0.0000 -0.4714
vn -0.7730 0.0000 -0.6344
vn -0.6344 0.0000 -0.7730
vn -0.4714 0.0000 -0.8819
vn 0.0000 1.0000 0.0000
vn -0.2903 0.0000 -0.9569
vn -0.0980 0.0000 -0.9952
vn 0.0000 -1.0000 0.0000
vn -1.0000 0.0000 0.0000
vn 0.0000 0.0000 -1.0000
vn 1.0000 0.0000 0.0000
vn 0.0000 0.0000 1.0000
usemtl None
s off
f 2/1/1 3/2/1 1/3/1
f 4/4/2 5/5/2 3/6/2
f 6/7/3 7/8/3 5/9/3
f 8/10/4 9/11/4 7/12/4
f 10/13/5 11/14/5 9/15/5
f 12/16/6 13/17/6 11/18/6
f 14/19/7 15/20/7 13/21/7
f 16/22/8 17/23/8 15/24/8
f 18/25/9 19/26/9 17/27/9
f 20/28/10 21/29/10 19/30/10
f 22/31/11 23/32/11 21/33/11
f 24/34/12 25/35/12 23/36/12
f 26/37/13 27/38/13 25/39/13
f 28/40/14 29/41/14 27/42/14
f 30/43/15 31/44/15 29/45/15
f 32/46/16 33/47/16 31/48/16
f 34/49/17 35/50/17 33/51/17
f 36/52/18 37/53/18 35/54/18
f 38/55/19 39/56/19 37/57/19
f 40/58/20 41/59/20 39/60/20
f 42/61/21 43/62/21 41/63/21
f 44/64/22 45/65/22 43/66/22
f 46/67/23 47/68/23 45/69/23
f 48/70/24 49/71/24 47/72/24
f 50/73/25 51/74/25 49/75/25
f 52/76/26 53/77/26 51/78/26
f 54/79/27 55/80/27 53/81/27
f 56/82/28 57/83/28 55/84/28
f 58/85/29 59/86/29 57/87/29
f 60/88/30 61/89/30 59/90/30
f 54/79/31 38/91/31 22/92/31
f 62/93/32 63/94/32 61/95/32
f 64/96/33 1/97/33 63/98/33
f 15/99/34 31/44/34 47/72/34
f 66/100/1 67/101/1 65/102/1
f 68/103/2 69/104/2 67/105/2
f 70/106/3 71/107/3 69/108/3
f 72/109/4 73/110/4 71/111/4
f 74/112/5 75/113/5 73/114/5
f 76/115/6 77/116/6 75/117/6
f 78/118/7 79/119/7 77/120/7
f 80/121/8 81/122/8 79/123/8
f 82/124/9 83/125/9 81/126/9
f 84/127/10 85/128/10 83/129/10
f 86/130/11 87/131/11 85/132/11
f 88/133/12 89/134/12 87/135/12
f 90/136/13 91/137/13 89/138/13
f 92/139/14 93/140/14 91/141/14
f 94/142/15 95/143/15 93/144/15
f 96/145/16 97/146/16 95/147/16
f 98/148/17 99/149/17 97/150/17
f 100/151/18 101/152/18 99/153/18
f 102/154/19 103/155/19 101/156/19
f 104/157/20 105/158/20 103/159/20
f 106/160/21 107/161/21 105/162/21
f 108/163/22 109/164/22 107/165/22
f 110/166/23 111/167/23 109/168/23
f 112/169/24 113/170/24 111/171/24
f 114/172/25 115/173/25 113/174/25
f 116/175/26 117/176/26 115/177/26
f 118/178/27 119/179/27 117/180/27
f 120/181/28 121/182/28 119/183/28
f 122/184/29 123/185/29 121/186/29
f 124/187/30 125/188/30 123/189/30
f 118/178/31 102/190/31 86/191/31
f 126/192/32 127/193/32 125/194/32
f 128/195/33 65/196/33 127/197/33
f 95/198/34 111/167/34 127/197/34
f 130/199/35 131/200/35 129/201/35
f 132/202/36 135/203/36 131/204/36
f 136/205/37 133/206/37 135/207/37
f 134/208/38 129/209/38 133/210/38
f 135/211/34 129/209/34 131/204/34
f 132/202/31 134/212/31 136/213/31
f 2/1/1 4/214/1 3/6/1
f 4/4/2 6/215/2 5/9/2
f 6/7/3 8/216/3 7/12/3
f 8/10/4 10/217/4 9/15/4
f 10/13/5 12/218/5 11/18/5
f 12/16/6 14/219/6 13/21/6
f 14/19/7 16/220/7 15/24/7
f 16/22/8 18/221/8 17/27/8
f 18/25/9 20/222/9 19/30/9
f 20/28/10 22/223/10 21/33/10
f 22/31/11 24/224/11 23/36/11
f 24/34/12 26/225/12 25/39/12
f 26/37/13 28/226/13 27/42/13
f 28/40/14 30/227/14 29/45/14
f 30/43/15 32/228/15 31/48/15
f 32/46/16 34/229/16 33/51/16
f 34/49/17 36/230/17 35/54/17
f 36/52/18 38/91/18 37/57/18
f 38/55/19 40/231/19 39/60/19
f 40/58/20 42/232/20 41/63/20
f 42/61/21 44/233/21 43/66/21
f 44/64/22 46/234/22 45/69/22
f 46/67/23 48/235/23 47/72/23
f 48/70/24 50/236/24 49/75/24
f 50/73/25 52/237/25 51/78/25
f 52/76/26 54/238/26 53/81/26
f 54/79/27 56/239/27 55/84/27
f 56/82/28 58/240/28 57/87/28
f 58/85/29 60/241/29 59/90/29
f 60/88/30 62/242/30 61/95/30
f 6/7/31 4/214/31 2/243/31
f 2/1/31 64/244/31 6/245/31
f 64/96/31 62/242/31 6/245/31
f 62/93/31 60/241/31 58/246/31
f 58/85/31 56/239/31 54/247/31
f 54/79/31 52/237/31 50/248/31
f 50/73/31 48/235/31 54/247/31
f 48/70/31 46/234/31 54/247/31
f 46/67/31 44/233/31 38/249/31
f 44/64/31 42/232/31 38/249/31
f 42/61/31 40/231/31 38/249/31
f 38/55/31 36/230/31 34/250/31
f 34/49/31 32/228/31 30/251/31
f 30/43/31 28/226/31 26/252/31
f 26/37/31 24/224/31 22/92/31
f 22/31/31 20/222/31 18/253/31
f 18/25/31 16/220/31 22/92/31
f 16/22/31 14/219/31 22/92/31
f 14/19/31 12/218/31 10/254/31
f 10/13/31 8/216/31 6/245/31
f 62/93/31 58/240/31 6/245/31
f 58/85/31 54/238/31 6/245/31
f 38/55/31 34/229/31 22/92/31
f 34/49/31 30/227/31 22/92/31
f 30/43/31 26/225/31 22/92/31
f 14/19/31 10/217/31 22/92/31
f 10/13/31 6/215/31 22/92/31
f 54/79/31 46/234/31 38/249/31
f 6/7/31 54/238/31 22/92/31
f 62/93/32 64/244/32 63/98/32
f 64/96/33 2/255/33 1/3/33
f 63/256/34 1/97/34 3/6/34
f 3/257/34 5/5/34 7/12/34
f 7/258/34 9/11/34 11/18/34
f 11/259/34 13/17/34 7/12/34
f 13/260/34 15/20/34 7/12/34
f 15/99/34 17/23/34 19/30/34
f 19/261/34 21/29/34 15/24/34
f 21/262/34 23/32/34 15/24/34
f 23/263/34 25/35/34 31/48/34
f 25/264/34 27/38/34 31/48/34
f 27/265/34 29/41/34 31/48/34
f 31/266/34 33/47/34 35/54/34
f 35/267/34 37/53/34 39/60/34
f 39/268/34 41/59/34 43/66/34
f 43/269/34 45/65/34 47/72/34
f 47/270/34 49/71/34 51/78/34
f 51/271/34 53/77/34 55/84/34
f 55/272/34 57/83/34 63/98/34
f 57/273/34 59/86/34 63/98/34
f 59/274/34 61/89/34 63/98/34
f 63/256/34 3/2/34 7/12/34
f 31/266/34 35/50/34 47/72/34
f 35/267/34 39/56/34 47/72/34
f 39/268/34 43/62/34 47/72/34
f 47/270/34 51/74/34 63/98/34
f 51/271/34 55/80/34 63/98/34
f 63/256/34 7/8/34 15/24/34
f 15/99/34 23/32/34 31/48/34
f 63/256/34 15/20/34 47/72/34
f 66/100/1 68/275/1 67/105/1
f 68/103/2 70/276/2 69/108/2
f 70/106/3 72/277/3 71/111/3
f 72/109/4 74/278/4 73/114/4
f 74/112/5 76/279/5 75/117/5
f 76/115/6 78/280/6 77/120/6
f 78/118/7 80/281/7 79/123/7
f 80/121/8 82/282/8 81/126/8
f 82/124/9 84/283/9 83/129/9
f 84/127/10 86/284/10 85/132/10
f 86/130/11 88/285/11 87/135/11
f 88/133/12 90/286/12 89/138/12
f 90/136/13 92/287/13 91/141/13
f 92/139/14 94/288/14 93/144/14
f 94/142/15 96/289/15 95/147/15
f 96/145/16 98/290/16 97/150/16
f 98/148/17 100/291/17 99/153/17
f 100/151/18 102/190/18 101/156/18
f 102/154/19 104/292/19 103/159/19
f 104/157/20 106/293/20 105/162/20
f 106/160/21 108/294/21 107/165/21
f 108/163/22 110/295/22 109/168/22
f 110/166/23 112/296/23 111/171/23
f 112/169/24 114/297/24 113/174/24
f 114/172/25 116/298/25 115/177/25
f 116/175/26 118/299/26 117/180/26
f 118/178/27 120/300/27 119/183/27
f 120/181/28 122/301/28 121/186/28
f 122/184/29 124/302/29 123/189/29
f 124/187/30 126/303/30 125/194/30
f 70/106/31 68/275/31 66/304/31
f 66/100/31 128/305/31 70/306/31
f 128/195/31 126/303/31 70/306/31
f 126/192/31 124/302/31 122/307/31
f 122/184/31 120/300/31 118/308/31
f 118/178/31 116/298/31 114/309/31
f 114/172/31 112/296/31 118/308/31
f 112/169/31 110/295/31 118/308/31
f 110/166/31 108/294/31 102/310/31
f 108/163/31 106/293/31 102/310/31
f 106/160/31 104/292/31 102/310/31
f 102/154/31 100/291/31 94/311/31
f 100/151/31 98/290/31 94/311/31
f 98/148/31 96/289/31 94/311/31
f 94/142/31 92/287/31 86/191/31
f 92/139/31 90/286/31 86/191/31
f 90/136/31 88/285/31 86/191/31
f 86/130/31 84/283/31 82/312/31
f 82/124/31 80/281/31 78/313/31
f 78/118/31 76/279/31 74/314/31
f 74/112/31 72/277/31 70/306/31
f 126/192/31 122/301/31 70/306/31
f 122/184/31 118/299/31 70/306/31
f 86/130/31 82/282/31 78/313/31
f 78/118/31 74/278/31 86/191/31
f 74/112/31 70/276/31 86/191/31
f 118/178/31 110/295/31 102/310/31
f 102/154/31 94/288/31 86/191/31
f 70/106/31 118/299/31 86/191/31
f 126/192/32 128/305/32 127/197/32
f 128/195/33 66/315/33 65/102/33
f 127/316/34 65/196/34 67/105/34
f 67/317/34 69/104/34 71/111/34
f 71/318/34 73/110/34 79/123/34
f 73/319/34 75/113/34 79/123/34
f 75/320/34 77/116/34 79/123/34
f 79/321/34 81/122/34 83/129/34
f 83/322/34 85/128/34 79/123/34
f 85/323/34 87/131/34 79/123/34
f 87/324/34 89/134/34 91/141/34
f 91/325/34 93/140/34 95/147/34
f 95/198/34 97/146/34 99/153/34
f 99/326/34 101/152/34 103/159/34
f 103/327/34 105/158/34 111/171/34
f 105/328/34 107/161/34 111/171/34
f 107/329/34 109/164/34 111/171/34
f 111/330/34 113/170/34 115/177/34
f 115/331/34 117/176/34 119/183/34
f 119/332/34 121/182/34 127/197/34
f 121/333/34 123/185/34 127/197/34
f 123/334/34 125/188/34 127/197/34
f 127/316/34 67/101/34 71/111/34
f 87/324/34 91/137/34 95/147/34
f 95/198/34 99/149/34 111/171/34
f 99/326/34 103/155/34 111/171/34
f 111/330/34 115/173/34 119/183/34
f 127/316/34 71/107/34 79/123/34
f 79/321/34 87/131/34 127/197/34
f 87/324/34 95/143/34 127/197/34
f 111/330/34 119/179/34 127/197/34
f 130/199/35 132/335/35 131/204/35
f 132/202/36 136/336/36 135/207/36
f 136/205/37 134/212/37 133/210/37
f 134/208/38 130/337/38 129/201/38
f 135/211/34 133/206/34 129/201/34
f 132/202/31 130/337/31 134/338/31
