# Blender v2.79 (sub 0) OBJ File: ''
# www.blender.org
mtllib square.mtl
o 큐브
v -0.125000 -0.100000 0.250000
v -0.125000 0.100000 0.250000
v -0.125000 -0.100000 -0.250000
v -0.125000 0.100000 -0.250000
v 0.125000 -0.100000 0.250000
v 0.125000 0.100000 0.250000
v 0.125000 -0.100000 -0.250000
v 0.125000 0.100000 -0.250000
v -0.031250 0.100000 -0.093750
v -0.031250 0.150000 -0.093750
v -0.031250 0.100000 -0.156250
v -0.031250 0.150000 -0.156250
v 0.031250 0.100000 -0.093750
v 0.031250 0.150000 -0.093750
v 0.031250 0.100000 -0.156250
v 0.031250 0.150000 -0.156250
v -0.031250 0.100000 0.156250
v -0.031250 0.150000 0.156250
v -0.031250 0.100000 0.093750
v -0.031250 0.150000 0.093750
v 0.031250 0.100000 0.156250
v 0.031250 0.150000 0.156250
v 0.031250 0.100000 0.093750
v 0.031250 0.150000 0.093750
vn -1.0000 0.0000 0.0000
vn 0.0000 0.0000 -1.0000
vn 1.0000 0.0000 0.0000
vn 0.0000 0.0000 1.0000
vn 0.0000 -1.0000 0.0000
vn 0.0000 1.0000 0.0000
usemtl None
s off
f 1//1 2//1 4//1 3//1
f 3//2 4//2 8//2 7//2
f 7//3 8//3 6//3 5//3
f 5//4 6//4 2//4 1//4
f 3//5 7//5 5//5 1//5
f 8//6 4//6 2//6 6//6
f 9//1 10//1 12//1 11//1
f 11//2 12//2 16//2 15//2
f 15//3 16//3 14//3 13//3
f 13//4 14//4 10//4 9//4
f 11//5 15//5 13//5 9//5
f 16//6 12//6 10//6 14//6
f 17//1 18//1 20//1 19//1
f 19//2 20//2 24//2 23//2
f 23//3 24//3 22//3 21//3
f 21//4 22//4 18//4 17//4
f 19//5 23//5 21//5 17//5
f 24//6 20//6 18//6 22//6
