# Blender v2.79 (sub 0) OBJ File: ''
# www.blender.org
mtllib twobytwo.mtl
o íë¸Œ.001
v 0.375000 0.500000 -0.375000
v 0.375000 0.750000 -0.375000
v 0.375000 0.500000 -0.625000
v 0.375000 0.750000 -0.625000
v 0.625000 0.500000 -0.375000
v 0.625000 0.750000 -0.375000
v 0.625000 0.500000 -0.625000
v 0.625000 0.750000 -0.625000
v -1.000000 -0.500000 1.000000
v -1.000000 0.500000 1.000000
v -1.000000 -0.500000 -1.000000
v -1.000000 0.500000 -1.000000
v 1.000000 -0.500000 1.000000
v 1.000000 0.500000 1.000000
v 1.000000 -0.500000 -1.000000
v 1.000000 0.500000 -1.000000
v -0.625000 0.500000 -0.375000
v -0.625000 0.750000 -0.375000
v -0.625000 0.500000 -0.625000
v -0.625000 0.750000 -0.625000
v -0.375000 0.500000 -0.375000
v -0.375000 0.750000 -0.375000
v -0.375000 0.500000 -0.625000
v -0.375000 0.750000 -0.625000
v 0.375000 0.500000 0.625000
v 0.375000 0.750000 0.625000
v 0.375000 0.500000 0.375000
v 0.375000 0.750000 0.375000
v 0.625000 0.500000 0.625000
v 0.625000 0.750000 0.625000
v 0.625000 0.500000 0.375000
v 0.625000 0.750000 0.375000
v -0.625000 0.500000 0.625000
v -0.625000 0.750000 0.625000
v -0.625000 0.500000 0.375000
v -0.625000 0.750000 0.375000
v -0.375000 0.500000 0.625000
v -0.375000 0.750000 0.625000
v -0.375000 0.500000 0.375000
v -0.375000 0.750000 0.375000
vt 0.000000 0.000000
vt 1.000000 0.000000
vt 1.000000 1.000000
vt 0.000000 0.000000
vt 1.000000 0.000000
vt 1.000000 1.000000
vt 0.000000 0.000000
vt 1.000000 0.000000
vt 1.000000 1.000000
vt 0.000000 0.000000
vt 1.000000 0.000000
vt 1.000000 1.000000
vt 0.000000 0.000000
vt 1.000000 0.000000
vt 1.000000 1.000000
vt 0.000000 0.000000
vt 1.000000 0.000000
vt 1.000000 1.000000
vt 0.000000 0.000000
vt 1.000000 0.000000
vt 1.000000 1.000000
vt 0.000000 0.000000
vt 1.000000 0.000000
vt 1.000000 1.000000
vt 0.000000 0.000000
vt 1.000000 0.000000
vt 1.000000 1.000000
vt 0.000000 0.000000
vt 1.000000 0.000000
vt 1.000000 1.000000
vt 0.000000 0.000000
vt 1.000000 0.000000
vt 1.000000 1.000000
vt 0.000000 0.000000
vt 1.000000 0.000000
vt 1.000000 1.000000
vt 0.000000 0.000000
vt 1.000000 0.000000
vt 1.000000 1.000000
vt 0.000000 0.000000
vt 1.000000 0.000000
vt 1.000000 1.000000
vt 0.000000 0.000000
vt 1.000000 0.000000
vt 1.000000 1.000000
vt 0.000000 0.000000
vt 1.000000 0.000000
vt 1.000000 1.000000
vt 0.000000 0.000000
vt 1.000000 0.000000
vt 1.000000 1.000000
vt 0.000000 0.000000
vt 1.000000 0.000000
vt 1.000000 1.000000
vt 0.000000 0.000000
vt 1.000000 0.000000
vt 1.000000 1.000000
vt 0.000000 0.000000
vt 1.000000 0.000000
vt 1.000000 1.000000
vt 0.000000 0.000000
vt 1.000000 0.000000
vt 1.000000 1.000000
vt 0.000000 0.000000
vt 1.000000 0.000000
vt 1.000000 1.000000
vt 0.000000 0.000000
vt 1.000000 0.000000
vt 1.000000 1.000000
vt 0.000000 0.000000
vt 1.000000 0.000000
vt 1.000000 1.000000
vt 0.000000 0.000000
vt 1.000000 0.000000
vt 1.000000 1.000000
vt 1.000000 0.000000
vt 1.000000 0.000000
vt 1.000000 0.000000
vt 1.000000 1.000000
vt 1.000000 0.000000
vt 1.000000 0.000000
vt 1.000000 0.000000
vt 1.000000 1.000000
vt 1.000000 0.000000
vt 1.000000 0.000000
vt 1.000000 0.000000
vt 1.000000 1.000000
vt 1.000000 0.000000
vt 1.000000 0.000000
vt 1.000000 0.000000
vt 1.000000 1.000000
vt 1.000000 0.000000
vt 1.000000 0.000000
vt 1.000000 0.000000
vt 1.000000 1.000000
vn -1.0000 0.0000 0.0000
vn 0.0000 0.0000 -1.0000
vn 1.0000 0.0000 0.0000
vn 0.0000 0.0000 1.0000
vn 0.0000 -1.0000 0.0000
vn 0.0000 1.0000 0.0000
usemtl None
s off
f 2/1/1 3/2/1 1/3/1
f 4/4/2 7/5/2 3/6/2
f 8/7/3 5/8/3 7/9/3
f 6/10/4 1/11/4 5/12/4
f 7/13/5 1/11/5 3/6/5
f 4/4/6 6/14/6 8/15/6
f 10/16/1 11/17/1 9/18/1
f 12/19/2 15/20/2 11/21/2
f 16/22/3 13/23/3 15/24/3
f 14/25/4 9/26/4 13/27/4
f 15/28/5 9/26/5 11/21/5
f 12/19/6 14/29/6 16/30/6
f 18/31/1 19/32/1 17/33/1
f 20/34/2 23/35/2 19/36/2
f 24/37/3 21/38/3 23/39/3
f 22/40/4 17/41/4 21/42/4
f 23/43/5 17/41/5 19/36/5
f 20/34/6 22/44/6 24/45/6
f 26/46/1 27/47/1 25/48/1
f 28/49/2 31/50/2 27/51/2
f 32/52/3 29/53/3 31/54/3
f 30/55/4 25/56/4 29/57/4
f 31/58/5 25/56/5 27/51/5
f 28/49/6 30/59/6 32/60/6
f 34/61/1 35/62/1 33/63/1
f 36/64/2 39/65/2 35/66/2
f 40/67/3 37/68/3 39/69/3
f 38/70/4 33/71/4 37/72/4
f 39/73/5 33/71/5 35/66/5
f 36/64/6 38/74/6 40/75/6
f 2/1/1 4/76/1 3/6/1
f 4/4/2 8/77/2 7/9/2
f 8/7/3 6/14/3 5/12/3
f 6/10/4 2/78/4 1/3/4
f 7/13/5 5/8/5 1/3/5
f 4/4/6 2/78/6 6/79/6
f 10/16/1 12/80/1 11/21/1
f 12/19/2 16/81/2 15/24/2
f 16/22/3 14/29/3 13/27/3
f 14/25/4 10/82/4 9/18/4
f 15/28/5 13/23/5 9/18/5
f 12/19/6 10/82/6 14/83/6
f 18/31/1 20/84/1 19/36/1
f 20/34/2 24/85/2 23/39/2
f 24/37/3 22/44/3 21/42/3
f 22/40/4 18/86/4 17/33/4
f 23/43/5 21/38/5 17/33/5
f 20/34/6 18/86/6 22/87/6
f 26/46/1 28/88/1 27/51/1
f 28/49/2 32/89/2 31/54/2
f 32/52/3 30/59/3 29/57/3
f 30/55/4 26/90/4 25/48/4
f 31/58/5 29/53/5 25/48/5
f 28/49/6 26/90/6 30/91/6
f 34/61/1 36/92/1 35/66/1
f 36/64/2 40/93/2 39/69/2
f 40/67/3 38/74/3 37/72/3
f 38/70/4 34/94/4 33/63/4
f 39/73/5 37/68/5 33/63/5
f 36/64/6 34/94/6 38/95/6
