# Blender v2.79 (sub 0) OBJ File: ''
# www.blender.org
mtllib blue.mtl
o blue_plain_í‰ë©´.002
v -0.000500 0.000000 0.000500
v 0.000500 0.000000 0.000500
v -0.000500 0.000000 -0.000500
v 0.000500 0.000000 -0.000500
v 3.000000 2.000000 -1.300000
v 3.212132 2.000000 -1.212132
v 3.300000 2.000000 -1.000000
v 3.212132 2.000000 -0.787868
v 3.000000 2.000000 -0.700000
v 2.787868 2.000000 -0.787868
v 2.700000 2.000000 -1.000000
v 2.787868 2.000000 -1.212132
v 3.000000 3.000000 -1.000000
v 2.300000 2.500000 1.950000
v 2.547487 2.500000 2.052513
v 2.650000 2.500000 2.300000
v 2.547487 2.500000 2.547487
v 2.300000 2.500000 2.650000
v 2.052512 2.500000 2.547487
v 1.950000 2.500000 2.300000
v 2.052512 2.500000 2.052513
v 2.300000 3.500000 2.300000
v 3.000000 2.000000 2.500000
v 3.353553 2.000000 2.646447
v 3.500000 2.000000 3.000000
v 3.353553 2.000000 3.353553
v 3.000000 2.000000 3.500000
v 2.646446 2.000000 3.353553
v 2.500000 2.000000 3.000000
v 2.646446 2.000000 2.646447
v 3.000000 3.200000 3.000000
v 3.000000 2.000000 -3.500000
v 3.353553 2.000000 -3.353553
v 3.500000 2.000000 -3.000000
v 3.353553 2.000000 -2.646447
v 3.000000 2.000000 -2.500000
v 2.646446 2.000000 -2.646447
v 2.500000 2.000000 -3.000000
v 2.646446 2.000000 -3.353553
v 3.000000 3.200000 -3.000000
v -3.000000 2.000000 -3.500000
v -2.646447 2.000000 -3.353553
v -2.500000 2.000000 -3.000000
v -2.646447 2.000000 -2.646447
v -3.000000 2.000000 -2.500000
v -3.353553 2.000000 -2.646447
v -3.500000 2.000000 -3.000000
v -3.353553 2.000000 -3.353553
v -3.000000 3.200000 -3.000000
v -3.000000 2.000000 2.500000
v -2.646447 2.000000 2.646447
v -2.500000 2.000000 3.000000
v -2.646447 2.000000 3.353553
v -3.000000 2.000000 3.500000
v -3.353553 2.000000 3.353553
v -3.500000 2.000000 3.000000
v -3.353553 2.000000 2.646447
v -3.000000 3.200000 3.000000
v 3.000000 2.000000 0.700000
v 3.212132 2.000000 0.787868
v 3.300000 2.000000 1.000000
v 3.212132 2.000000 1.212132
v 3.000000 2.000000 1.300000
v 2.787868 2.000000 1.212132
v 2.700000 2.000000 1.000000
v 2.787868 2.000000 0.787868
v 3.000000 3.000000 1.000000
v -3.000000 2.000000 0.700000
v -2.787868 2.000000 0.787868
v -2.700000 2.000000 1.000000
v -2.787868 2.000000 1.212132
v -3.000000 2.000000 1.300000
v -3.212132 2.000000 1.212132
v -3.300000 2.000000 1.000000
v -3.212132 2.000000 0.787868
v -3.000000 3.000000 1.000000
v -3.000000 2.000000 -1.300000
v -2.787868 2.000000 -1.212132
v -2.700000 2.000000 -1.000000
v -2.787868 2.000000 -0.787868
v -3.000000 2.000000 -0.700000
v -3.212132 2.000000 -0.787868
v -3.300000 2.000000 -1.000000
v -3.212132 2.000000 -1.212132
v -3.000000 3.000000 -1.000000
v -1.500000 5.600000 -2.200000
v -1.005025 5.600000 -1.994975
v -0.800000 5.600000 -1.500000
v -1.005025 5.600000 -1.005025
v -1.500000 5.600000 -0.800000
v -1.994975 5.600000 -1.005025
v -2.200000 5.600000 -1.500000
v -1.994975 5.600000 -1.994975
v -1.500000 6.800000 -1.500000
v -2.000000 7.000000 0.600000
v -1.717158 7.000000 0.717157
v -1.600000 7.000000 1.000000
v -1.717158 7.000000 1.282843
v -2.000000 7.000000 1.400000
v -2.282843 7.000000 1.282843
v -2.400000 7.000000 1.000000
v -2.282843 7.000000 0.717157
v -2.000000 9.000000 1.000000
vt 0.000100 0.000100
vt 0.999900 0.999900
vt 0.000100 0.999900
vt 0.937319 0.539345
vt 0.843732 0.500580
vt 0.937318 0.461815
vt 0.882497 0.406994
vt 0.804967 0.406994
vt 0.750145 0.461815
vt 0.750145 0.539345
vt 0.804967 0.594167
vt 0.882497 0.594167
vt 0.000000 0.000000
vt 0.000000 0.000000
vt 0.000000 0.000000
vt 0.814104 0.218659
vt 0.859330 0.109475
vt 0.904555 0.218659
vt 0.968514 0.154700
vt 0.968514 0.064249
vt 0.904555 0.000290
vt 0.814104 0.000290
vt 0.750145 0.064249
vt 0.750145 0.154700
vt 0.000000 0.000000
vt 0.000000 0.000000
vt 0.000000 0.000000
vt 0.091660 0.749565
vt 0.156268 0.593587
vt 0.220876 0.749565
vt 0.312246 0.658195
vt 0.312246 0.528978
vt 0.220876 0.437609
vt 0.091660 0.437609
vt 0.000290 0.528978
vt 0.000290 0.658195
vt 0.000000 0.000000
vt 0.000000 0.000000
vt 0.000000 0.000000
vt 0.658195 0.312246
vt 0.593587 0.156268
vt 0.749565 0.220876
vt 0.749565 0.091660
vt 0.658195 0.000290
vt 0.528978 0.000290
vt 0.437609 0.091660
vt 0.437609 0.220876
vt 0.528978 0.312246
vt 0.000000 0.000000
vt 0.000000 0.000000
vt 0.000000 0.000000
vt 0.528978 0.624782
vt 0.593587 0.468804
vt 0.658195 0.624782
vt 0.749565 0.533413
vt 0.749564 0.404196
vt 0.658195 0.312826
vt 0.528978 0.312826
vt 0.437609 0.404196
vt 0.437609 0.533412
vt 0.000000 0.000000
vt 0.000000 0.000000
vt 0.000000 0.000000
vt 0.658195 0.937318
vt 0.593587 0.781340
vt 0.749564 0.845949
vt 0.749564 0.716732
vt 0.658195 0.625362
vt 0.528978 0.625363
vt 0.437609 0.716732
vt 0.437609 0.845949
vt 0.528978 0.937318
vt 0.000000 0.000000
vt 0.000000 0.000000
vt 0.000000 0.000000
vt 0.804967 0.969675
vt 0.843731 0.876088
vt 0.882497 0.969675
vt 0.937318 0.914853
vt 0.937318 0.837323
vt 0.882496 0.782501
vt 0.804967 0.782501
vt 0.750145 0.837323
vt 0.750145 0.914853
vt 0.000000 0.000000
vt 0.000000 0.000000
vt 0.000000 0.000000
vt 0.804967 0.781921
vt 0.843732 0.688334
vt 0.882497 0.781921
vt 0.937319 0.727099
vt 0.937318 0.649569
vt 0.882497 0.594747
vt 0.804967 0.594747
vt 0.750145 0.649569
vt 0.750145 0.727099
vt 0.000000 0.000000
vt 0.000000 0.000000
vt 0.000000 0.000000
vt 0.804967 0.406413
vt 0.843732 0.312826
vt 0.882497 0.406413
vt 0.937319 0.351591
vt 0.937319 0.274062
vt 0.882497 0.219240
vt 0.804967 0.219240
vt 0.750145 0.274061
vt 0.750145 0.351591
vt 0.000000 0.000000
vt 0.000000 0.000000
vt 0.000000 0.000000
vt 0.437028 0.309111
vt 0.218659 0.218659
vt 0.437028 0.128208
vt 0.309111 0.000290
vt 0.128208 0.000290
vt 0.000290 0.128208
vt 0.000290 0.309111
vt 0.128208 0.437028
vt 0.309111 0.437028
vt 0.000000 0.000000
vt 0.000000 0.000000
vt 0.000000 0.000000
vt 0.176759 0.999710
vt 0.125073 0.874927
vt 0.249855 0.926614
vt 0.249855 0.823241
vt 0.176759 0.750145
vt 0.073386 0.750145
vt 0.000290 0.823241
vt 0.000290 0.926614
vt 0.073386 0.999710
vt 0.000000 0.000000
vt 0.000000 0.000000
vt 0.000000 0.000000
vt 0.999900 0.000100
vt 0.000000 0.000000
vt 0.000000 0.000000
vt 0.000000 0.000000
vt 0.000000 0.000000
vt 0.000000 0.000000
vt 0.000000 0.000000
vt 0.000000 0.000000
vt 0.000000 0.000000
vt 0.000000 0.000000
vt 0.000000 0.000000
vt 0.000000 0.000000
vt 0.000000 0.000000
vt 0.000000 0.000000
vt 0.000000 0.000000
vt 0.000000 0.000000
vt 0.000000 0.000000
vt 0.000000 0.000000
vt 0.000000 0.000000
vt 0.000000 0.000000
vt 0.000000 0.000000
vt 0.000000 0.000000
vt 0.000000 0.000000
vt 0.000000 0.000000
vt 0.000000 0.000000
vt 0.000000 0.000000
vt 0.000000 0.000000
vt 0.000000 0.000000
vt 0.000000 0.000000
vt 0.000000 0.000000
vt 0.000000 0.000000
vt 0.000000 0.000000
vt 0.000000 0.000000
vt 0.000000 0.000000
vt 0.000000 0.000000
vt 0.000000 0.000000
vt 0.000000 0.000000
vt 0.000000 0.000000
vt 0.000000 0.000000
vt 0.000000 0.000000
vt 0.000000 0.000000
vt 0.000000 0.000000
vt 0.000000 0.000000
vt 0.000000 0.000000
vt 0.000000 0.000000
vt 0.000000 0.000000
vt 0.000000 0.000000
vt 0.000000 0.000000
vt 0.000000 0.000000
vt 0.000000 0.000000
vt 0.000000 0.000000
vt 0.000000 0.000000
vt 0.000000 0.000000
vt 0.000000 0.000000
vt 0.000000 0.000000
vt 0.000000 0.000000
vn 0.0000 1.0000 0.0000
vn 0.3688 0.2671 -0.8903
vn 0.8903 0.2671 -0.3688
vn 0.8903 0.2671 0.3688
vn 0.3688 0.2671 0.8903
vn -0.3688 0.2671 0.8903
vn -0.8903 0.2671 0.3688
vn -0.8903 0.2671 -0.3688
vn -0.3688 0.2671 -0.8903
vn 0.0000 -1.0000 0.0000
vn 0.3641 0.3077 -0.8791
vn 0.8791 0.3077 -0.3641
vn 0.8791 0.3077 0.3641
vn 0.3641 0.3077 0.8791
vn -0.3641 0.3077 0.8791
vn -0.8791 0.3077 0.3641
vn -0.8791 0.3077 -0.3641
vn -0.3641 0.3077 -0.8791
vn 0.3571 0.3593 -0.8622
vn 0.8622 0.3593 -0.3571
vn 0.8622 0.3593 0.3571
vn 0.3571 0.3593 0.8622
vn -0.3571 0.3593 0.8622
vn -0.8622 0.3593 0.3571
vn -0.8622 0.3593 -0.3571
vn -0.3571 0.3593 -0.8622
vn 0.3369 0.4744 -0.8133
vn 0.8133 0.4744 -0.3369
vn 0.8133 0.4744 0.3369
vn 0.3369 0.4744 0.8133
vn -0.3369 0.4744 0.8133
vn -0.8133 0.4744 0.3369
vn -0.8133 0.4744 -0.3369
vn -0.3369 0.4744 -0.8133
vn 0.3763 0.1817 -0.9085
vn 0.9085 0.1817 -0.3763
vn 0.9085 0.1817 0.3763
vn 0.3763 0.1817 0.9085
vn -0.3763 0.1817 0.9085
vn -0.9085 0.1817 0.3763
vn -0.9085 0.1817 -0.3763
vn -0.3763 0.1817 -0.9085
usemtl None
s off
f 2/1/1 3/2/1 1/3/1
f 5/4/2 13/5/2 6/6/2
f 6/6/3 13/5/3 7/7/3
f 7/7/4 13/5/4 8/8/4
f 8/8/5 13/5/5 9/9/5
f 9/9/6 13/5/6 10/10/6
f 10/10/7 13/5/7 11/11/7
f 11/11/8 13/5/8 12/12/8
f 12/12/9 13/5/9 5/4/9
f 12/13/10 6/14/10 9/15/10
f 14/16/11 22/17/11 15/18/11
f 15/18/12 22/17/12 16/19/12
f 16/19/13 22/17/13 17/20/13
f 17/20/14 22/17/14 18/21/14
f 18/21/15 22/17/15 19/22/15
f 19/22/16 22/17/16 20/23/16
f 20/23/17 22/17/17 21/24/17
f 21/24/18 22/17/18 14/16/18
f 17/25/10 20/26/10 15/27/10
f 23/28/19 31/29/19 24/30/19
f 24/30/20 31/29/20 25/31/20
f 25/31/21 31/29/21 26/32/21
f 26/32/22 31/29/22 27/33/22
f 27/33/23 31/29/23 28/34/23
f 28/34/24 31/29/24 29/35/24
f 29/35/25 31/29/25 30/36/25
f 30/36/26 31/29/26 23/28/26
f 30/37/10 24/38/10 27/39/10
f 32/40/19 40/41/19 33/42/19
f 33/42/20 40/41/20 34/43/20
f 34/43/21 40/41/21 35/44/21
f 35/44/22 40/41/22 36/45/22
f 36/45/23 40/41/23 37/46/23
f 37/46/24 40/41/24 38/47/24
f 38/47/25 40/41/25 39/48/25
f 39/48/26 40/41/26 32/40/26
f 35/49/10 37/50/10 39/51/10
f 41/52/19 49/53/19 42/54/19
f 42/54/20 49/53/20 43/55/20
f 43/55/21 49/53/21 44/56/21
f 44/56/22 49/53/22 45/57/22
f 45/57/23 49/53/23 46/58/23
f 46/58/24 49/53/24 47/59/24
f 47/59/25 49/53/25 48/60/25
f 48/60/26 49/53/26 41/52/26
f 44/61/10 46/62/10 48/63/10
f 50/64/19 58/65/19 51/66/19
f 51/66/20 58/65/20 52/67/20
f 52/67/21 58/65/21 53/68/21
f 53/68/22 58/65/22 54/69/22
f 54/69/23 58/65/23 55/70/23
f 55/70/24 58/65/24 56/71/24
f 56/71/25 58/65/25 57/72/25
f 57/72/26 58/65/26 50/64/26
f 57/73/10 51/74/10 54/75/10
f 59/76/2 67/77/2 60/78/2
f 60/78/3 67/77/3 61/79/3
f 61/79/4 67/77/4 62/80/4
f 62/80/5 67/77/5 63/81/5
f 63/81/6 67/77/6 64/82/6
f 64/82/7 67/77/7 65/83/7
f 65/83/8 67/77/8 66/84/8
f 66/84/9 67/77/9 59/76/9
f 64/85/10 65/86/10 66/87/10
f 68/88/2 76/89/2 69/90/2
f 69/90/3 76/89/3 70/91/3
f 70/91/4 76/89/4 71/92/4
f 71/92/5 76/89/5 72/93/5
f 72/93/6 76/89/6 73/94/6
f 73/94/7 76/89/7 74/95/7
f 74/95/8 76/89/8 75/96/8
f 75/96/9 76/89/9 68/88/9
f 73/97/10 74/98/10 75/99/10
f 77/100/2 85/101/2 78/102/2
f 78/102/3 85/101/3 79/103/3
f 79/103/4 85/101/4 80/104/4
f 80/104/5 85/101/5 81/105/5
f 81/105/6 85/101/6 82/106/6
f 82/106/7 85/101/7 83/107/7
f 83/107/8 85/101/8 84/108/8
f 84/108/9 85/101/9 77/100/9
f 84/109/10 78/110/10 80/111/10
f 86/112/27 94/113/27 87/114/27
f 87/114/28 94/113/28 88/115/28
f 88/115/29 94/113/29 89/116/29
f 89/116/30 94/113/30 90/117/30
f 90/117/31 94/113/31 91/118/31
f 91/118/32 94/113/32 92/119/32
f 92/119/33 94/113/33 93/120/33
f 93/120/34 94/113/34 86/112/34
f 90/121/10 91/122/10 92/123/10
f 95/124/35 103/125/35 96/126/35
f 96/126/36 103/125/36 97/127/36
f 97/127/37 103/125/37 98/128/37
f 98/128/38 103/125/38 99/129/38
f 99/129/39 103/125/39 100/130/39
f 100/130/40 103/125/40 101/131/40
f 101/131/41 103/125/41 102/132/41
f 102/132/42 103/125/42 95/124/42
f 98/133/10 100/134/10 102/135/10
f 2/1/1 4/136/1 3/2/1
f 12/13/10 5/137/10 6/14/10
f 6/14/10 7/138/10 8/139/10
f 8/139/10 9/15/10 6/14/10
f 9/15/10 10/140/10 12/13/10
f 10/140/10 11/141/10 12/13/10
f 21/142/10 14/143/10 20/26/10
f 14/143/10 15/27/10 20/26/10
f 15/27/10 16/144/10 17/25/10
f 17/25/10 18/145/10 19/146/10
f 19/146/10 20/26/10 17/25/10
f 30/37/10 23/147/10 24/38/10
f 24/38/10 25/148/10 27/39/10
f 25/148/10 26/149/10 27/39/10
f 27/39/10 28/150/10 29/151/10
f 30/37/10 27/39/10 29/151/10
f 39/51/10 32/152/10 33/153/10
f 33/153/10 34/154/10 35/49/10
f 35/49/10 36/155/10 37/50/10
f 37/50/10 38/156/10 39/51/10
f 39/51/10 33/153/10 35/49/10
f 48/63/10 41/157/10 44/61/10
f 41/157/10 42/158/10 44/61/10
f 42/158/10 43/159/10 44/61/10
f 44/61/10 45/160/10 46/62/10
f 46/62/10 47/161/10 48/63/10
f 57/73/10 50/162/10 51/74/10
f 51/74/10 52/163/10 53/164/10
f 53/164/10 54/75/10 51/74/10
f 54/75/10 55/165/10 57/73/10
f 55/165/10 56/166/10 57/73/10
f 66/87/10 59/167/10 63/168/10
f 59/167/10 60/169/10 63/168/10
f 60/169/10 61/170/10 62/171/10
f 62/171/10 63/168/10 60/169/10
f 63/168/10 64/85/10 66/87/10
f 75/99/10 68/172/10 72/173/10
f 68/172/10 69/174/10 71/175/10
f 69/174/10 70/176/10 71/175/10
f 71/175/10 72/173/10 68/172/10
f 72/173/10 73/97/10 75/99/10
f 84/109/10 77/177/10 78/110/10
f 78/110/10 79/178/10 80/111/10
f 80/111/10 81/179/10 84/109/10
f 81/179/10 82/180/10 84/109/10
f 82/180/10 83/181/10 84/109/10
f 93/182/10 86/183/10 92/123/10
f 86/183/10 87/184/10 89/185/10
f 92/123/10 86/183/10 89/185/10
f 87/184/10 88/186/10 89/185/10
f 89/185/10 90/121/10 92/123/10
f 102/135/10 95/187/10 96/188/10
f 96/188/10 97/189/10 98/133/10
f 98/133/10 99/190/10 100/134/10
f 100/134/10 101/191/10 102/135/10
f 102/135/10 96/188/10 98/133/10
