# Blender v2.79 (sub 0) OBJ File: ''
# www.blender.org
mtllib flags.mtl
o flag_plain_í‰ë©´.003
v -0.000500 0.000000 0.000500
v 0.000500 0.000000 0.000500
v -0.000500 0.000000 -0.000500
v 0.000500 0.000000 -0.000500
v 2.990586 2.982477 1.009413
v 2.990586 3.246055 1.009413
v 2.990586 2.982477 0.990586
v 2.990586 3.246055 0.990586
v 3.009413 2.982477 1.009413
v 3.009413 3.246055 1.009413
v 3.009413 2.982477 0.990586
v 3.009413 3.246055 0.990586
v 2.990586 3.237047 1.007235
v 2.990586 3.425317 1.007235
v 2.990586 3.331182 0.630695
v 2.990586 3.331182 0.630695
v 3.009413 3.237047 1.007235
v 3.009413 3.425317 1.007235
v 3.009413 3.331182 0.630695
v 3.009413 3.331182 0.630695
v 2.990586 3.185158 3.009413
v 2.990586 3.448736 3.009413
v 2.990586 3.185158 2.990586
v 2.990586 3.448736 2.990586
v 3.009413 3.185158 3.009413
v 3.009413 3.448736 3.009413
v 3.009413 3.185158 2.990586
v 3.009413 3.448736 2.990586
v 2.990586 3.439728 3.007235
v 2.990586 3.627998 3.007235
v 2.990586 3.533863 2.630695
v 2.990586 3.533863 2.630695
v 3.009413 3.439728 3.007235
v 3.009413 3.627998 3.007235
v 3.009413 3.533863 2.630695
v 3.009413 3.533863 2.630695
v 2.990586 2.986234 -0.990586
v 2.990586 3.249812 -0.990586
v 2.990586 2.986234 -1.009413
v 2.990586 3.249812 -1.009413
v 3.009413 2.986234 -0.990586
v 3.009413 3.249812 -0.990586
v 3.009413 2.986234 -1.009413
v 3.009413 3.249812 -1.009413
v 2.990586 3.240804 -0.992765
v 2.990586 3.429074 -0.992765
v 2.990586 3.334939 -1.369305
v 2.990586 3.334939 -1.369305
v 3.009413 3.240804 -0.992765
v 3.009413 3.429074 -0.992765
v 3.009413 3.334939 -1.369305
v 3.009413 3.334939 -1.369305
v 2.990586 3.185158 -2.990586
v 2.990586 3.448736 -2.990586
v 2.990586 3.185158 -3.009413
v 2.990586 3.448736 -3.009413
v 3.009413 3.185158 -2.990586
v 3.009413 3.448736 -2.990586
v 3.009413 3.185158 -3.009413
v 3.009413 3.448736 -3.009413
v 2.990586 3.439728 -2.992765
v 2.990586 3.627998 -2.992765
v 2.990586 3.533863 -3.369305
v 2.990586 3.533863 -3.369305
v 3.009413 3.439728 -2.992765
v 3.009413 3.627998 -2.992765
v 3.009413 3.533863 -3.369305
v 3.009413 3.533863 -3.369305
v -3.009413 3.185158 -2.990586
v -3.009413 3.448736 -2.990586
v -3.009413 3.185158 -3.009413
v -3.009413 3.448736 -3.009413
v -2.990586 3.185158 -2.990586
v -2.990586 3.448736 -2.990586
v -2.990586 3.185158 -3.009413
v -2.990586 3.448736 -3.009413
v -3.009413 3.439729 -2.992765
v -3.009413 3.627998 -2.992765
v -3.009413 3.533864 -3.369305
v -3.009413 3.533864 -3.369305
v -2.990586 3.439729 -2.992765
v -2.990586 3.627998 -2.992765
v -2.990586 3.533864 -3.369305
v -2.990586 3.533864 -3.369305
v -3.009413 3.185158 3.009413
v -3.009413 3.448736 3.009413
v -3.009413 3.185158 2.990586
v -3.009413 3.448736 2.990586
v -2.990586 3.185158 3.009413
v -2.990586 3.448736 3.009413
v -2.990586 3.185158 2.990586
v -2.990586 3.448736 2.990586
v -3.009413 3.439729 3.007235
v -3.009413 3.627998 3.007235
v -3.009413 3.533864 2.630695
v -3.009413 3.533864 2.630695
v -2.990586 3.439729 3.007235
v -2.990586 3.627998 3.007235
v -2.990586 3.533864 2.630695
v -2.990586 3.533864 2.630695
v -3.009413 2.982478 1.009413
v -3.009413 3.246056 1.009413
v -3.009413 2.982478 0.990586
v -3.009413 3.246056 0.990586
v -2.990586 2.982478 1.009413
v -2.990586 3.246056 1.009413
v -2.990586 2.982478 0.990586
v -2.990586 3.246056 0.990586
v -3.009413 3.237048 1.007235
v -3.009413 3.425318 1.007235
v -3.009413 3.331183 0.630695
v -3.009413 3.331183 0.630695
v -2.990586 3.237048 1.007235
v -2.990586 3.425318 1.007235
v -2.990586 3.331183 0.630695
v -2.990586 3.331183 0.630695
v -3.009413 2.982478 -0.990586
v -3.009413 3.246056 -0.990586
v -3.009413 2.982478 -1.009413
v -3.009413 3.246056 -1.009413
v -2.990586 2.982478 -0.990586
v -2.990586 3.246056 -0.990586
v -2.990586 2.982478 -1.009413
v -2.990586 3.246056 -1.009413
v -3.009413 3.237048 -0.992765
v -3.009413 3.425318 -0.992765
v -3.009413 3.331183 -1.369305
v -3.009413 3.331183 -1.369305
v -2.990586 3.237048 -0.992765
v -2.990586 3.425318 -0.992765
v -2.990586 3.331183 -1.369305
v -2.990586 3.331183 -1.369305
v 2.290586 3.475789 2.309413
v 2.290586 3.739367 2.309413
v 2.290586 3.475789 2.290586
v 2.290586 3.739367 2.290586
v 2.309413 3.475789 2.309413
v 2.309413 3.739367 2.309413
v 2.309413 3.475789 2.290586
v 2.309413 3.739367 2.290586
v 2.290586 3.730359 2.307235
v 2.290586 3.918629 2.307235
v 2.290586 3.824494 1.930695
v 2.290586 3.824494 1.930695
v 2.309413 3.730359 2.307235
v 2.309413 3.918629 2.307235
v 2.309413 3.824494 1.930695
v 2.309413 3.824494 1.930695
v -1.509413 6.784844 -1.500070
v -1.509413 7.048422 -1.500070
v -1.509413 7.048422 -1.518896
v -1.509413 6.784844 -1.518896
v -1.490587 7.048422 -1.518896
v -1.490587 6.784844 -1.518896
v -1.490587 7.048422 -1.500070
v -1.490587 6.784844 -1.500070
v -1.509413 7.039414 -1.502248
v -1.509413 7.227684 -1.502248
v -1.509413 7.133550 -1.878787
v -1.509413 7.133550 -1.878787
v -1.490587 7.133550 -1.878787
v -1.490587 7.133550 -1.878787
v -1.490587 7.227684 -1.502248
v -1.490587 7.039414 -1.502248
vt 0.000100 0.000100
vt 0.999900 0.999900
vt 0.000100 0.999900
vt 0.000000 0.000000
vt 1.000000 0.000000
vt 1.000000 1.000000
vt 0.000000 0.000000
vt 1.000000 0.000000
vt 1.000000 1.000000
vt 0.000000 0.000000
vt 1.000000 0.000000
vt 1.000000 1.000000
vt 0.000000 0.000000
vt 1.000000 0.000000
vt 1.000000 1.000000
vt 0.000000 0.000000
vt 1.000000 0.000000
vt 1.000000 1.000000
vt 0.000000 0.000000
vt 1.000000 0.000000
vt 1.000000 1.000000
vt 0.000000 0.000000
vt 1.000000 0.000000
vt 1.000000 1.000000
vt 0.000000 0.000000
vt 1.000000 0.000000
vt 1.000000 1.000000
vt 0.000000 0.000000
vt 1.000000 0.000000
vt 1.000000 1.000000
vt 0.000000 0.000000
vt 1.000000 0.000000
vt 1.000000 1.000000
vt 0.000000 0.000000
vt 1.000000 0.000000
vt 1.000000 1.000000
vt 0.000000 0.000000
vt 1.000000 0.000000
vt 1.000000 1.000000
vt 0.000000 0.000000
vt 1.000000 0.000000
vt 1.000000 1.000000
vt 0.000000 0.000000
vt 1.000000 0.000000
vt 1.000000 1.000000
vt 0.000000 0.000000
vt 1.000000 0.000000
vt 1.000000 1.000000
vt 0.000000 0.000000
vt 1.000000 0.000000
vt 1.000000 1.000000
vt 0.000000 0.000000
vt 1.000000 0.000000
vt 1.000000 1.000000
vt 0.000000 0.000000
vt 1.000000 0.000000
vt 1.000000 1.000000
vt 0.000000 0.000000
vt 1.000000 0.000000
vt 1.000000 1.000000
vt 0.000000 0.000000
vt 1.000000 0.000000
vt 1.000000 1.000000
vt 0.000000 0.000000
vt 1.000000 0.000000
vt 1.000000 1.000000
vt 0.000000 0.000000
vt 1.000000 0.000000
vt 1.000000 1.000000
vt 0.000000 0.000000
vt 1.000000 0.000000
vt 1.000000 1.000000
vt 0.000000 0.000000
vt 1.000000 0.000000
vt 1.000000 1.000000
vt 0.000000 0.000000
vt 1.000000 0.000000
vt 1.000000 1.000000
vt 0.000000 0.000000
vt 1.000000 0.000000
vt 1.000000 1.000000
vt 0.000000 0.000000
vt 1.000000 0.000000
vt 1.000000 1.000000
vt 0.000000 0.000000
vt 1.000000 0.000000
vt 1.000000 1.000000
vt 0.000000 0.000000
vt 1.000000 0.000000
vt 1.000000 1.000000
vt 0.000000 0.000000
vt 1.000000 0.000000
vt 1.000000 1.000000
vt 0.000000 0.000000
vt 1.000000 0.000000
vt 1.000000 1.000000
vt 0.000000 0.000000
vt 1.000000 0.000000
vt 1.000000 1.000000
vt 0.000000 0.000000
vt 1.000000 0.000000
vt 1.000000 1.000000
vt 0.000000 0.000000
vt 1.000000 0.000000
vt 1.000000 1.000000
vt 0.000000 0.000000
vt 1.000000 0.000000
vt 1.000000 1.000000
vt 0.000000 0.000000
vt 1.000000 0.000000
vt 1.000000 1.000000
vt 0.000000 0.000000
vt 1.000000 0.000000
vt 1.000000 1.000000
vt 0.000000 0.000000
vt 1.000000 0.000000
vt 1.000000 1.000000
vt 0.000000 0.000000
vt 1.000000 0.000000
vt 1.000000 1.000000
vt 0.000000 0.000000
vt 1.000000 0.000000
vt 1.000000 1.000000
vt 0.000000 0.000000
vt 1.000000 0.000000
vt 1.000000 1.000000
vt 0.000000 0.000000
vt 1.000000 0.000000
vt 1.000000 1.000000
vt 0.000000 0.000000
vt 1.000000 0.000000
vt 1.000000 1.000000
vt 0.000000 0.000000
vt 1.000000 0.000000
vt 1.000000 1.000000
vt 0.000000 0.000000
vt 1.000000 0.000000
vt 1.000000 1.000000
vt 0.000000 0.000000
vt 1.000000 0.000000
vt 1.000000 1.000000
vt 0.000000 0.000000
vt 1.000000 0.000000
vt 1.000000 1.000000
vt 0.000000 0.000000
vt 1.000000 0.000000
vt 1.000000 1.000000
vt 0.000000 0.000000
vt 1.000000 0.000000
vt 1.000000 1.000000
vt 0.000000 0.000000
vt 1.000000 0.000000
vt 1.000000 1.000000
vt 0.000000 0.000000
vt 1.000000 0.000000
vt 1.000000 1.000000
vt 0.000000 0.000000
vt 1.000000 0.000000
vt 1.000000 1.000000
vt 0.000000 0.000000
vt 1.000000 0.000000
vt 1.000000 1.000000
vt 0.000000 0.000000
vt 1.000000 0.000000
vt 1.000000 1.000000
vt 0.000000 0.000000
vt 1.000000 0.000000
vt 1.000000 1.000000
vt 0.000000 0.000000
vt 1.000000 0.000000
vt 1.000000 1.000000
vt 0.000000 0.000000
vt 1.000000 0.000000
vt 1.000000 1.000000
vt 0.000000 0.000000
vt 1.000000 0.000000
vt 1.000000 1.000000
vt 0.000000 0.000000
vt 1.000000 0.000000
vt 1.000000 1.000000
vt 0.000000 0.000000
vt 1.000000 0.000000
vt 1.000000 1.000000
vt 0.000000 0.000000
vt 1.000000 0.000000
vt 1.000000 1.000000
vt 0.000000 0.000000
vt 1.000000 0.000000
vt 1.000000 1.000000
vt 0.000000 0.000000
vt 1.000000 0.000000
vt 1.000000 1.000000
vt 0.000000 0.000000
vt 1.000000 0.000000
vt 1.000000 1.000000
vt 0.000000 0.000000
vt 1.000000 0.000000
vt 1.000000 1.000000
vt 0.000000 0.000000
vt 1.000000 0.000000
vt 1.000000 1.000000
vt 0.000000 0.000000
vt 1.000000 0.000000
vt 1.000000 1.000000
vt 0.000000 0.000000
vt 1.000000 0.000000
vt 1.000000 1.000000
vt 0.000000 0.000000
vt 1.000000 0.000000
vt 1.000000 1.000000
vt 0.000000 0.000000
vt 1.000000 0.000000
vt 1.000000 1.000000
vt 0.000000 0.000000
vt 1.000000 0.000000
vt 1.000000 1.000000
vt 0.000000 0.000000
vt 1.000000 0.000000
vt 1.000000 1.000000
vt 0.000000 0.000000
vt 1.000000 0.000000
vt 1.000000 1.000000
vt 0.000000 0.000000
vt 1.000000 0.000000
vt 1.000000 1.000000
vt 0.000000 0.000000
vt 1.000000 0.000000
vt 1.000000 1.000000
vt 0.000000 0.000000
vt 1.000000 0.000000
vt 1.000000 1.000000
vt 0.000000 0.000000
vt 1.000000 0.000000
vt 1.000000 1.000000
vt 0.000000 0.000000
vt 1.000000 0.000000
vt 1.000000 1.000000
vt 0.000000 0.000000
vt 1.000000 0.000000
vt 1.000000 1.000000
vt 0.000000 0.000000
vt 1.000000 0.000000
vt 1.000000 1.000000
vt 0.000000 0.000000
vt 1.000000 0.000000
vt 1.000000 1.000000
vt 0.000000 0.000000
vt 1.000000 0.000000
vt 1.000000 1.000000
vt 0.000000 0.000000
vt 1.000000 0.000000
vt 1.000000 1.000000
vt 0.000000 0.000000
vt 1.000000 0.000000
vt 1.000000 1.000000
vt 0.000000 0.000000
vt 1.000000 0.000000
vt 1.000000 1.000000
vt 0.000000 0.000000
vt 1.000000 0.000000
vt 1.000000 1.000000
vt 0.000000 0.000000
vt 1.000000 0.000000
vt 1.000000 1.000000
vt 0.000000 0.000000
vt 1.000000 0.000000
vt 1.000000 1.000000
vt 0.000000 0.000000
vt 1.000000 0.000000
vt 1.000000 1.000000
vt 0.000000 0.000000
vt 1.000000 0.000000
vt 1.000000 1.000000
vt 0.999900 0.000100
vt 1.000000 0.000000
vt 1.000000 0.000000
vt 1.000000 0.000000
vt 1.000000 1.000000
vt 1.000000 0.000000
vt 1.000000 0.000000
vt 1.000000 0.000000
vt 1.000000 1.000000
vt 1.000000 0.000000
vt 1.000000 0.000000
vt 1.000000 0.000000
vt 1.000000 1.000000
vt 1.000000 0.000000
vt 1.000000 0.000000
vt 1.000000 0.000000
vt 1.000000 1.000000
vt 1.000000 0.000000
vt 1.000000 0.000000
vt 1.000000 0.000000
vt 1.000000 1.000000
vt 1.000000 0.000000
vt 1.000000 0.000000
vt 1.000000 0.000000
vt 1.000000 1.000000
vt 1.000000 0.000000
vt 1.000000 0.000000
vt 1.000000 0.000000
vt 1.000000 1.000000
vt 1.000000 0.000000
vt 1.000000 0.000000
vt 1.000000 0.000000
vt 1.000000 1.000000
vt 1.000000 0.000000
vt 1.000000 0.000000
vt 1.000000 0.000000
vt 1.000000 1.000000
vt 1.000000 0.000000
vt 1.000000 0.000000
vt 1.000000 0.000000
vt 1.000000 1.000000
vt 1.000000 0.000000
vt 1.000000 0.000000
vt 1.000000 0.000000
vt 1.000000 1.000000
vt 1.000000 0.000000
vt 1.000000 0.000000
vt 1.000000 0.000000
vt 1.000000 1.000000
vt 1.000000 0.000000
vt 1.000000 0.000000
vt 1.000000 0.000000
vt 1.000000 1.000000
vt 1.000000 0.000000
vt 1.000000 0.000000
vt 1.000000 0.000000
vt 1.000000 1.000000
vt 1.000000 0.000000
vt 1.000000 0.000000
vt 1.000000 0.000000
vt 1.000000 1.000000
vt 1.000000 0.000000
vt 1.000000 0.000000
vt 1.000000 0.000000
vt 1.000000 1.000000
vt 1.000000 0.000000
vt 1.000000 0.000000
vt 1.000000 0.000000
vt 1.000000 1.000000
vt 1.000000 0.000000
vt 1.000000 0.000000
vt 1.000000 0.000000
vt 1.000000 1.000000
vt 0.000000 0.000000
vt 1.000000 0.000000
vt 1.000000 1.000000
vt 0.000000 0.000000
vt 1.000000 0.000000
vt 1.000000 1.000000
vt 0.000000 0.000000
vt 1.000000 0.000000
vt 1.000000 1.000000
vt 0.000000 0.000000
vt 1.000000 0.000000
vt 1.000000 1.000000
vt 0.000000 0.000000
vt 1.000000 0.000000
vt 1.000000 1.000000
vt 0.000000 0.000000
vt 1.000000 0.000000
vt 1.000000 1.000000
vt 0.000000 0.000000
vt 1.000000 0.000000
vt 1.000000 1.000000
vt 0.000000 0.000000
vt 1.000000 0.000000
vt 1.000000 1.000000
vt 0.000000 0.000000
vt 1.000000 0.000000
vt 1.000000 1.000000
vt 0.000000 0.000000
vt 1.000000 0.000000
vt 1.000000 1.000000
vt 1.000000 0.000000
vt 1.000000 0.000000
vt 1.000000 0.000000
vt 1.000000 1.000000
vt 1.000000 0.000000
vt 1.000000 0.000000
vt 1.000000 0.000000
vt 1.000000 1.000000
vn 0.0000 1.0000 0.0000
vn -1.0000 0.0000 0.0000
vn 0.0000 0.0000 -1.0000
vn 1.0000 0.0000 0.0000
vn 0.0000 0.0000 1.0000
vn 0.0000 -1.0000 0.0000
vn 0.0000 -0.9701 -0.2425
vn 0.0000 0.9701 -0.2425
vn -0.5773 0.5773 0.5773
vn -0.5773 -0.5773 -0.5773
vn -0.5773 -0.5773 0.5773
vn -0.5773 0.5773 -0.5773
vn 0.5773 -0.5773 -0.5773
vn 0.5773 0.5773 -0.5773
vn 0.5773 -0.5773 0.5773
vn 0.5773 0.5773 0.5773
vn -0.5655 0.6500 0.5075
vn -0.1535 -0.4775 0.8651
vn -0.5655 -0.6500 0.5075
vn 0.0000 0.4833 0.8755
vn 0.0000 -0.4833 0.8755
vn 0.1535 0.4775 0.8651
vn 0.5655 -0.6500 0.5077
vn 0.5655 0.6500 0.5075
usemtl None.108
s off
f 2/1/1 3/2/1 1/3/1
f 6/4/2 7/5/2 5/6/2
f 8/7/3 11/8/3 7/9/3
f 12/10/4 9/11/4 11/12/4
f 10/13/5 5/14/5 9/15/5
f 11/16/6 5/14/6 7/9/6
f 8/7/1 10/17/1 12/18/1
f 14/19/2 15/20/2 13/21/2
f 16/22/5 19/23/5 15/24/5
f 20/25/5 17/26/5 19/27/5
f 18/28/5 13/29/5 17/30/5
f 19/31/7 13/29/7 15/24/7
f 16/22/8 18/32/8 20/33/8
f 22/34/2 23/35/2 21/36/2
f 24/37/3 27/38/3 23/39/3
f 28/40/4 25/41/4 27/42/4
f 26/43/5 21/44/5 25/45/5
f 27/46/6 21/44/6 23/39/6
f 24/37/1 26/47/1 28/48/1
f 30/49/2 31/50/2 29/51/2
f 32/52/5 35/53/5 31/54/5
f 36/55/5 33/56/5 35/57/5
f 34/58/5 29/59/5 33/60/5
f 35/61/7 29/59/7 31/54/7
f 32/52/8 34/62/8 36/63/8
f 38/64/2 39/65/2 37/66/2
f 40/67/3 43/68/3 39/69/3
f 44/70/4 41/71/4 43/72/4
f 42/73/5 37/74/5 41/75/5
f 43/76/6 37/74/6 39/69/6
f 40/67/1 42/77/1 44/78/1
f 46/79/2 47/80/2 45/81/2
f 48/82/5 51/83/5 47/84/5
f 52/85/5 49/86/5 51/87/5
f 50/88/5 45/89/5 49/90/5
f 51/91/7 45/89/7 47/84/7
f 48/82/8 50/92/8 52/93/8
f 54/94/2 55/95/2 53/96/2
f 56/97/3 59/98/3 55/99/3
f 60/100/4 57/101/4 59/102/4
f 58/103/5 53/104/5 57/105/5
f 59/106/6 53/104/6 55/99/6
f 56/97/1 58/107/1 60/108/1
f 62/109/2 63/110/2 61/111/2
f 64/112/5 67/113/5 63/114/5
f 68/115/5 65/116/5 67/117/5
f 66/118/5 61/119/5 65/120/5
f 67/121/7 61/119/7 63/114/7
f 64/112/8 66/122/8 68/123/8
f 70/124/2 71/125/2 69/126/2
f 72/127/3 75/128/3 71/129/3
f 76/130/4 73/131/4 75/132/4
f 74/133/5 69/134/5 73/135/5
f 75/136/6 69/134/6 71/129/6
f 72/127/1 74/137/1 76/138/1
f 78/139/2 79/140/2 77/141/2
f 80/142/5 83/143/5 79/144/5
f 84/145/5 81/146/5 83/147/5
f 82/148/5 77/149/5 81/150/5
f 83/151/7 77/149/7 79/144/7
f 80/142/8 82/152/8 84/153/8
f 86/154/2 87/155/2 85/156/2
f 88/157/3 91/158/3 87/159/3
f 92/160/4 89/161/4 91/162/4
f 90/163/5 85/164/5 89/165/5
f 91/166/6 85/164/6 87/159/6
f 88/157/1 90/167/1 92/168/1
f 94/169/2 95/170/2 93/171/2
f 96/172/5 99/173/5 95/174/5
f 100/175/5 97/176/5 99/177/5
f 98/178/5 93/179/5 97/180/5
f 99/181/7 93/179/7 95/174/7
f 96/172/8 98/182/8 100/183/8
f 102/184/2 103/185/2 101/186/2
f 104/187/3 107/188/3 103/189/3
f 108/190/4 105/191/4 107/192/4
f 106/193/5 101/194/5 105/195/5
f 107/196/6 101/194/6 103/189/6
f 104/187/1 106/197/1 108/198/1
f 110/199/2 111/200/2 109/201/2
f 112/202/5 115/203/5 111/204/5
f 116/205/5 113/206/5 115/207/5
f 114/208/5 109/209/5 113/210/5
f 115/211/7 109/209/7 111/204/7
f 112/202/8 114/212/8 116/213/8
f 118/214/2 119/215/2 117/216/2
f 120/217/3 123/218/3 119/219/3
f 124/220/4 121/221/4 123/222/4
f 122/223/5 117/224/5 121/225/5
f 123/226/6 117/224/6 119/219/6
f 120/217/1 122/227/1 124/228/1
f 126/229/2 127/230/2 125/231/2
f 128/232/5 131/233/5 127/234/5
f 132/235/5 129/236/5 131/237/5
f 130/238/5 125/239/5 129/240/5
f 131/241/7 125/239/7 127/234/7
f 128/232/8 130/242/8 132/243/8
f 134/244/2 135/245/2 133/246/2
f 136/247/3 139/248/3 135/249/3
f 140/250/4 137/251/4 139/252/4
f 138/253/5 133/254/5 137/255/5
f 139/256/6 133/254/6 135/249/6
f 136/247/1 138/257/1 140/258/1
f 142/259/2 143/260/2 141/261/2
f 144/262/5 147/263/5 143/264/5
f 148/265/5 145/266/5 147/267/5
f 146/268/5 141/269/5 145/270/5
f 147/271/7 141/269/7 143/264/7
f 144/262/8 146/272/8 148/273/8
f 2/1/1 4/274/1 3/2/1
f 6/4/2 8/275/2 7/9/2
f 8/7/3 12/276/3 11/12/3
f 12/10/4 10/17/4 9/15/4
f 10/13/5 6/277/5 5/6/5
f 11/16/6 9/11/6 5/6/6
f 8/7/1 6/277/1 10/278/1
f 14/19/5 16/279/5 15/24/5
f 16/22/5 20/280/5 19/27/5
f 20/25/4 18/32/4 17/30/4
f 18/28/5 14/281/5 13/21/5
f 19/31/7 17/26/7 13/21/7
f 16/22/8 14/281/8 18/282/8
f 22/34/2 24/283/2 23/39/2
f 24/37/3 28/284/3 27/42/3
f 28/40/4 26/47/4 25/45/4
f 26/43/5 22/285/5 21/36/5
f 27/46/6 25/41/6 21/36/6
f 24/37/1 22/285/1 26/286/1
f 30/49/5 32/287/5 31/54/5
f 32/52/5 36/288/5 35/57/5
f 36/55/4 34/62/4 33/60/4
f 34/58/5 30/289/5 29/51/5
f 35/61/7 33/56/7 29/51/7
f 32/52/8 30/289/8 34/290/8
f 38/64/2 40/291/2 39/69/2
f 40/67/3 44/292/3 43/72/3
f 44/70/4 42/77/4 41/75/4
f 42/73/5 38/293/5 37/66/5
f 43/76/6 41/71/6 37/66/6
f 40/67/1 38/293/1 42/294/1
f 46/79/5 48/295/5 47/84/5
f 48/82/5 52/296/5 51/87/5
f 52/85/4 50/92/4 49/90/4
f 50/88/5 46/297/5 45/81/5
f 51/91/7 49/86/7 45/81/7
f 48/82/8 46/297/8 50/298/8
f 54/94/2 56/299/2 55/99/2
f 56/97/3 60/300/3 59/102/3
f 60/100/4 58/107/4 57/105/4
f 58/103/5 54/301/5 53/96/5
f 59/106/6 57/101/6 53/96/6
f 56/97/1 54/301/1 58/302/1
f 62/109/5 64/303/5 63/114/5
f 64/112/5 68/304/5 67/117/5
f 68/115/4 66/122/4 65/120/4
f 66/118/5 62/305/5 61/111/5
f 67/121/7 65/116/7 61/111/7
f 64/112/8 62/305/8 66/306/8
f 70/124/2 72/307/2 71/129/2
f 72/127/3 76/308/3 75/132/3
f 76/130/4 74/137/4 73/135/4
f 74/133/5 70/309/5 69/126/5
f 75/136/6 73/131/6 69/126/6
f 72/127/1 70/309/1 74/310/1
f 78/139/5 80/311/5 79/144/5
f 80/142/5 84/312/5 83/147/5
f 84/145/4 82/152/4 81/150/4
f 82/148/5 78/313/5 77/141/5
f 83/151/7 81/146/7 77/141/7
f 80/142/8 78/313/8 82/314/8
f 86/154/2 88/315/2 87/159/2
f 88/157/3 92/316/3 91/162/3
f 92/160/4 90/167/4 89/165/4
f 90/163/5 86/317/5 85/156/5
f 91/166/6 89/161/6 85/156/6
f 88/157/1 86/317/1 90/318/1
f 94/169/5 96/319/5 95/174/5
f 96/172/5 100/320/5 99/177/5
f 100/175/4 98/182/4 97/180/4
f 98/178/5 94/321/5 93/171/5
f 99/181/7 97/176/7 93/171/7
f 96/172/8 94/321/8 98/322/8
f 102/184/2 104/323/2 103/189/2
f 104/187/3 108/324/3 107/192/3
f 108/190/4 106/197/4 105/195/4
f 106/193/5 102/325/5 101/186/5
f 107/196/6 105/191/6 101/186/6
f 104/187/1 102/325/1 106/326/1
f 110/199/5 112/327/5 111/204/5
f 112/202/5 116/328/5 115/207/5
f 116/205/4 114/212/4 113/210/4
f 114/208/5 110/329/5 109/201/5
f 115/211/7 113/206/7 109/201/7
f 112/202/8 110/329/8 114/330/8
f 118/214/2 120/331/2 119/219/2
f 120/217/3 124/332/3 123/222/3
f 124/220/4 122/227/4 121/225/4
f 122/223/5 118/333/5 117/216/5
f 123/226/6 121/221/6 117/216/6
f 120/217/1 118/333/1 122/334/1
f 126/229/5 128/335/5 127/234/5
f 128/232/5 132/336/5 131/237/5
f 132/235/4 130/242/4 129/240/4
f 130/238/5 126/337/5 125/231/5
f 131/241/7 129/236/7 125/231/7
f 128/232/8 126/337/8 130/338/8
f 134/244/2 136/339/2 135/249/2
f 136/247/3 140/340/3 139/252/3
f 140/250/4 138/257/4 137/255/4
f 138/253/5 134/341/5 133/246/5
f 139/256/6 137/251/6 133/246/6
f 136/247/1 134/341/1 138/342/1
f 142/259/5 144/343/5 143/264/5
f 144/262/5 148/344/5 147/267/5
f 148/265/4 146/272/4 145/270/4
f 146/268/5 142/345/5 141/261/5
f 147/271/7 145/266/7 141/261/7
f 144/262/8 142/345/8 146/346/8
s 1
f 150/347/9 152/348/10 149/349/11
f 151/350/12 154/351/13 152/352/10
f 153/353/14 156/354/15 154/355/13
f 155/356/16 149/357/11 156/358/15
f 154/359/13 149/357/11 152/352/10
f 151/350/12 155/360/16 153/361/14
f 158/362/17 160/363/18 157/364/19
f 159/365/20 162/366/21 160/367/18
f 161/368/22 164/369/23 162/370/21
f 163/371/24 157/372/19 164/373/23
f 162/374/21 157/372/19 160/367/18
f 159/365/20 163/375/24 161/376/22
f 150/347/9 151/377/12 152/352/10
f 151/350/12 153/378/14 154/355/13
f 153/353/14 155/360/16 156/358/15
f 155/356/16 150/379/9 149/349/11
f 154/359/13 156/354/15 149/349/11
f 151/350/12 150/379/9 155/380/16
f 158/362/17 159/381/20 160/367/18
f 159/365/20 161/382/22 162/370/21
f 161/368/22 163/375/24 164/373/23
f 163/371/24 158/383/17 157/364/19
f 162/374/21 164/369/23 157/364/19
f 159/365/20 158/383/17 163/384/24
