# Blender v2.79 (sub 0) OBJ File: ''
# www.blender.org
mtllib window.mtl
o window_plain_í‰ë©´.005
v -0.000500 -0.216858 0.000500
v 0.000500 -0.216858 0.000500
v -0.000500 -0.216858 -0.000500
v 0.000500 -0.216858 -0.000500
v -0.450000 6.583142 0.500000
v -0.450000 7.583142 0.500000
v -0.450000 6.583142 -0.500000
v -0.450000 7.583142 -0.500000
v -0.350000 6.583142 0.500000
v -0.350000 7.583142 0.500000
v -0.350000 6.583142 -0.500000
v -0.350000 7.583142 -0.500000
v -0.360000 7.550338 -0.467195
v -0.360000 6.615947 -0.467195
v -0.360000 6.615947 0.467195
v -0.360000 7.550338 0.467195
v -1.600000 4.783142 1.700000
v -1.600000 5.783142 1.700000
v -1.600000 4.783142 0.700000
v -1.600000 5.783142 0.700000
v -1.500000 4.783142 1.700000
v -1.500000 5.783142 1.700000
v -1.500000 4.783142 0.700000
v -1.500000 5.783142 0.700000
v -1.510000 5.750338 0.732805
v -1.510000 4.815947 0.732805
v -1.510000 4.815947 1.667195
v -1.510000 5.750338 1.667195
vt 0.006347 0.035018
vt 0.000027 0.041338
vt 0.000027 0.035018
vt 0.000000 0.000000
vt 0.000000 0.000000
vt 0.000000 0.000000
vt 0.000000 0.000000
vt 0.000000 0.000000
vt 0.000000 0.000000
vt 0.000000 0.000000
vt 0.000000 0.000000
vt 0.000000 0.000000
vt 0.999675 0.034964
vt 0.000321 0.017522
vt 0.999971 0.017522
vt 0.000000 0.000000
vt 0.000000 0.000000
vt 0.000000 0.000000
vt 0.000000 0.000000
vt 0.000000 0.000000
vt 0.000000 0.000000
vt 0.000000 0.000000
vt 0.000000 0.000000
vt 0.000000 0.000000
vt 0.000000 0.000000
vt 0.000000 0.000000
vt 0.000000 0.000000
vt 0.999677 0.017468
vt 0.000323 0.000027
vt 0.999973 0.000027
vt 0.000000 0.000000
vt 0.000000 0.000000
vt 0.000000 0.000000
vt 0.006347 0.041338
vt 0.000027 0.034964
vt 0.000027 0.017468
vn 0.0000 1.0000 0.0000
vn -1.0000 0.0000 0.0000
vn 0.0000 0.0000 -1.0000
vn 0.9565 0.0000 -0.2916
vn 0.0000 0.0000 1.0000
vn 0.0000 -1.0000 0.0000
vn 1.0000 0.0000 0.0000
vn 0.9565 0.2916 0.0000
vn 0.9565 -0.2916 0.0000
vn 0.9565 0.0000 0.2916
usemtl None
s off
f 2/1/1 3/2/1 1/3/1
f 6/4/2 7/5/2 5/6/2
f 8/7/3 11/8/3 7/5/3
f 9/9/4 16/10/4 10/11/4
f 10/11/5 5/6/5 9/9/5
f 11/8/6 5/6/6 7/5/6
f 8/7/1 10/11/1 12/12/1
f 13/13/7 15/14/7 14/15/7
f 11/8/8 15/16/8 9/9/8
f 10/11/9 13/17/9 12/12/9
f 12/12/10 14/18/10 11/8/10
f 18/19/2 19/20/2 17/21/2
f 20/22/3 23/23/3 19/20/3
f 21/24/4 28/25/4 22/26/4
f 22/26/5 17/21/5 21/24/5
f 23/23/6 17/21/6 19/20/6
f 20/22/1 22/26/1 24/27/1
f 25/28/7 27/29/7 26/30/7
f 23/23/8 27/31/8 21/24/8
f 24/27/9 28/25/9 25/32/9
f 24/27/10 26/33/10 23/23/10
f 2/1/1 4/34/1 3/2/1
f 6/4/2 8/7/2 7/5/2
f 8/7/3 12/12/3 11/8/3
f 9/9/4 15/16/4 16/10/4
f 10/11/5 6/4/5 5/6/5
f 11/8/6 9/9/6 5/6/6
f 8/7/1 6/4/1 10/11/1
f 13/13/7 16/35/7 15/14/7
f 11/8/8 14/18/8 15/16/8
f 10/11/9 16/10/9 13/17/9
f 12/12/10 13/17/10 14/18/10
f 18/19/2 20/22/2 19/20/2
f 20/22/3 24/27/3 23/23/3
f 21/24/4 27/31/4 28/25/4
f 22/26/5 18/19/5 17/21/5
f 23/23/6 21/24/6 17/21/6
f 20/22/1 18/19/1 22/26/1
f 25/28/7 28/36/7 27/29/7
f 23/23/8 26/33/8 27/31/8
f 24/27/9 22/26/9 28/25/9
f 24/27/10 25/32/10 26/33/10
